<svg width="100" height="100" viewBox="0 0 100 100" fill="none" xmlns="http://www.w3.org/2000/svg">
<path d="M94.699 24.301L58.898 16.801C57.898 16.6018 56.7964 16.801 55.898 17.5002C55.0972 18.1994 54.5972 19.1994 54.5972 20.1994V54.0974C53.2964 53.5974 51.9956 53.2966 50.4956 53.2966C44.2964 53.2966 39.2966 58.2966 39.2966 64.4956C39.2966 70.6948 44.2966 75.6946 50.4956 75.6946C56.6948 75.6946 61.6946 70.6946 61.6946 64.4956L61.6985 33.9996L90.3975 39.9996V61.6986C89.0967 61.1986 87.7959 60.8978 86.2959 60.8978C80.0967 60.8978 75.0969 65.8978 75.0969 72.0968C75.0969 78.296 80.0969 83.2958 86.2959 83.2958C92.4949 83.2958 97.4949 78.2958 97.4949 72.0968L97.4988 27.7998C97.4988 26.1006 96.2996 24.6006 94.698 24.2998L94.699 24.301Z" fill="#23204B"/>
<path d="M42.1021 43.4999C42.9029 42.8007 43.4029 41.8007 43.4029 40.8007V31.6991C43.4029 29.9999 42.2037 28.5975 40.6021 28.1991L22.0001 24.3007C21.0001 24.1015 19.8985 24.3007 19.0001 24.9999C18.1993 25.6992 17.6993 26.6992 17.6993 27.6992V61.5972C16.3985 61.0972 15.0977 60.7964 13.5977 60.7964C7.39848 60.7964 2.39868 65.7964 2.39868 71.9954C2.39868 78.1946 7.39868 83.1944 13.5977 83.1944C19.7969 83.1944 24.7967 78.1944 24.7967 71.9954L24.8006 41.3004L39.1016 44.3004C40.1993 44.398 41.1993 44.1988 42.1016 43.4996L42.1021 43.4999Z" fill="#23204B"/>
</svg>
