<svg width="100%" height="100%" xmlns="http://www.w3.org/2000/svg">

<style>
@media only screen and (max-width: 919px) {
  #pat-rect {
    width: 1000px;
    height: 1000px;
  }
  #fill-rect {
    width: 1000px;
    height: 1000px;
  }
}
</style>

  <defs>
    <pattern id="pattern" viewBox="0 0 80 80" width="8%" height="8%" patternTransform="rotate(40)">
      <path fill-rule="evenodd" clip-rule="evenodd" d="M17.8182 -4L28 -4V6.7567L40 16.6029L52 6.7567V-4L62.1818 -4V10.6975L47.5005 22.7571L53.3944 27.5932L78.9091 6.64831V4.47035e-07H81.0909V7.68006L55.1142 29.0042L60.9989 33.8327L79.2945 18.8041L86.9091 12.1413V25.6494L68.6474 40.1084L84.7273 53.3022V65.5425L79.313 61.2111L17.8182 10.6975V-4ZM66.9213 38.6921L84.7273 24.594V16.9496L80.7056 20.4686L62.7185 35.2437L66.9213 38.6921ZM45.7809 21.3461L60 9.66616V-1.81818L54.1818 -1.81818V7.78876L41.7198 18.014L45.7809 21.3461ZM20 -1.81818V9.66616L80.687 59.5162L82.5455 61.003V54.3342L25.8182 7.78876V-1.81818L20 -1.81818ZM34.5455 -4L45.4545 -4V4.94747L40 8.58384L34.5455 4.94747V-4ZM36.7273 -1.81818V3.7798L40 5.96162L43.2727 3.7798V-1.81818L36.7273 -1.81818ZM-1.09091 4.47035e-07H1.09091L1.09091 6.64831L81.0909 72.32V80H78.9091V73.3517L-1.09091 7.68006V4.47035e-07ZM9.09091 5.8182V4.47035e-07H11.2727V5.8182H9.09091ZM38.9091 1.45455V4.47035e-07H41.0909V1.45455H38.9091ZM68.7273 5.81813V4.47035e-07H70.9091V5.81813H68.7273ZM-4 14.6212L0.70887 18.8069L62.1818 69.3025V84H52V73.2608L40 63.9275L28 73.2608V84H17.8182V69.3025L38.2813 52.4935L32.3926 47.6563L1.09091 73.3517V80H-1.09091L-1.09091 72.32L30.6738 46.2445L24.7905 41.4118L0.692443 61.2066L-4 65.0459L-4 52.7054L11.3526 40.1084L-4 27.9527L-4 14.6212ZM23.0718 40L-0.708871 20.4658L-1.81818 19.4798L-1.81818 26.8973L14.8292 40.0781L-1.81818 53.7375L-1.81818 60.4417L-0.690805 59.5193L23.0718 40ZM40 53.9053L20 70.3339V81.8182H25.8182V72.1937L40 61.1634L54.1818 72.1937V81.8182H60V70.3339L40 53.9053ZM-0.249509 40L-3.60747 37.2017L-2.21071 35.5256L3.1586 40L-2.21071 44.4744L-3.60747 42.7983L-0.249509 40ZM82.2107 35.5256L83.6075 37.2017L80.2495 40L83.6075 42.7983L82.2107 44.4744L76.8414 40L82.2107 35.5256ZM40 71.4162L45.4545 75.0525V84H34.5455V75.0525L40 71.4162ZM36.7273 76.2202V81.8182H43.2727V76.2202L40 74.0384L36.7273 76.2202ZM70.9091 74.2903V80H68.7273V74.2903H70.9091ZM11.2727 74.2904L11.2727 80H9.09091L9.09091 74.2904H11.2727ZM41.0909 78.5455V80H38.9091V78.5455H41.0909Z" fill="#23204B"/>
    </pattern>
    <pattern id="fill" viewBox="0,0,80,80" width="8%" height="8%" patternTransform="rotate(40)">
      <path d="M-8.86917e-05 19.6363L18.909 35.1687L24.7904 39.9999L-8.86917e-05 60.3635L-2.90918 62.7437L-2.90918 53.2214L13.0908 40.0931L-2.90918 27.4249L-2.90918 17.0504L-8.86917e-05 19.6363Z" fill="black" fill-opacity="0.1"/>
<path d="M18.909 69.8181V79.9999V82.909H26.909V79.9999V72.7272L39.9999 62.5454L53.0908 72.7272V79.9999V82.909H61.0908V79.9999V69.8181L49.328 60.1558L39.9999 52.4934L18.909 69.8181Z" fill="black" fill-opacity="0.1"/>
<path d="M35.6363 -8.89301e-05V4.36355L39.9999 7.27264L44.3635 4.36355V-8.89301e-05V-2.90918L35.6363 -2.90918V-8.89301e-05Z" fill="black" fill-opacity="0.1"/>
<path d="M35.6363 79.9999V75.6363L39.9999 72.7272L44.3635 75.6363V79.9999V82.909H35.6363V79.9999Z" fill="black" fill-opacity="0.1"/>
<path d="M26.909 -8.89301e-05V7.27264L39.9999 18.0139L53.0908 7.27264V-8.89301e-05V-2.90918L61.0908 -2.90918V-8.89301e-05V10.1817L45.7812 22.7575L60.9992 35.244L79.9999 19.6363L85.8181 14.5454V25.1216L66.909 40.0931L83.6363 53.8181V63.2726L79.9999 60.3635L55.2094 39.9999L49.328 35.1687L39.9999 27.5064L18.909 10.1817V-8.89301e-05V-2.90918L26.909 -2.90918V-8.89301e-05Z" fill="black" fill-opacity="0.1"/>
    </pattern>
  </defs>

  <rect id="pat-rect" width="400" height="400" fill-opacity="0.4" fill="url(#pattern)"/>
  <rect id="fill-rect" width="400" height="400" fill-opacity="0.4" fill="url(#fill)"/>
</svg>