<svg width="100%" height="100%" xmlns="http://www.w3.org/2000/svg">


  <defs>
    <pattern id="pattern-4" viewBox="0 0 160 160" width="9%" height="9%" patternTransform="rotate(-60)">
      <path fill-rule="evenodd" clip-rule="evenodd" d="M92.538 -4.5H67.462L67.2899 -4.4588C57.4862 -2.11252 48.6247 2.88684 41.3843 9.78776C39.8125 8.70835 38.1465 7.66881 36.3689 6.68651C39.5494 3.51497 43.0318 0.687066 46.764 -1.74297L45.1271 -4.25703C40.9536 -1.5397 37.083 1.64965 33.58 5.2402C31.813 4.38236 29.9432 3.58276 27.9569 2.85494C29.48 1.19903 31.0727 -0.384288 32.7299 -1.88973L30.7127 -4.11027C28.6625 -2.24784 26.708 -0.271527 24.8578 1.80928C18.0073 -0.309832 9.87616 -1.59091 0 -1.59091V1.40909C10.0587 1.40909 18.1643 2.77364 24.873 4.96177C27.9206 5.95578 30.6853 7.12149 33.2186 8.41065C35.9434 9.79729 38.4051 11.3292 40.6668 12.9487C43.0871 14.6818 45.2808 16.5169 47.3263 18.3863C49.5224 20.3932 51.5415 22.4336 53.493 24.4332C53.7826 24.73 54.0711 25.0262 54.3586 25.3214L54.3598 25.3227L54.3601 25.323C56.1605 27.1718 57.9235 28.9822 59.699 30.6476C61.9865 32.7934 64.3416 34.7442 66.9222 36.2973C70.6771 38.5571 74.8764 39.9545 80 39.9545C85.1236 39.9545 89.3229 38.5571 93.0778 36.2973C95.6584 34.7442 98.0135 32.7934 100.301 30.6476C102.076 28.9823 103.839 27.172 105.64 25.3233L105.64 25.3229L105.64 25.3225L105.644 25.3184L105.666 25.2958C105.946 25.009 106.226 24.7214 106.507 24.4332C108.458 22.4336 110.478 20.3932 112.674 18.3863C114.719 16.5169 116.913 14.6818 119.333 12.9487C121.595 11.3292 124.057 9.79729 126.781 8.41065C129.315 7.12149 132.079 5.95578 135.127 4.96177C141.836 2.77364 149.941 1.40909 160 1.40909V-1.59091C150.124 -1.59091 141.993 -0.309832 135.142 1.80928C133.292 -0.271526 131.337 -2.24783 129.287 -4.11027L127.27 -1.88973C128.927 -0.38429 130.52 1.19903 132.043 2.85494C130.057 3.58276 128.187 4.38236 126.42 5.2402C122.917 1.64965 119.046 -1.5397 114.873 -4.25703L113.236 -1.74297C116.968 0.687066 120.451 3.51497 123.631 6.68651C121.854 7.66881 120.187 8.70835 118.616 9.78777C111.375 2.88684 102.514 -2.11252 92.7101 -4.4588L92.538 -4.5ZM48.3205 15.2449C46.9186 14.0026 45.4388 12.7722 43.8604 11.5759C50.6204 5.25788 58.8071 0.688951 67.8173 -1.5H92.1827C101.193 0.688951 109.38 5.25788 116.14 11.5759C114.561 12.7722 113.081 14.0026 111.68 15.2449C103.108 7.4695 92.0651 2.77273 80 2.77273C67.9349 2.77273 56.8915 7.4695 48.3205 15.2449ZM80 5.77273C91.1646 5.77273 101.424 10.077 109.457 17.2801C108.028 18.6289 106.675 19.9795 105.375 21.3015C98.4262 15.179 89.6091 11.5 80 11.5C70.3908 11.5 61.5738 15.179 54.6252 21.3015C53.3254 19.9795 51.9722 18.6289 50.5432 17.2801C58.5763 10.077 68.8354 5.77273 80 5.77273ZM80 14.5C88.7639 14.5 96.8463 17.8304 103.276 23.4507C101.893 24.8698 100.564 26.2308 99.2403 27.5136C93.8999 22.9532 87.2397 20.2273 80 20.2273C72.7603 20.2273 66.1001 22.9532 60.7597 27.5136C59.4357 26.2308 58.1067 24.8698 56.7244 23.4507C63.1537 17.8304 71.2361 14.5 80 14.5ZM80 23.2273C86.3429 23.2273 92.2291 25.5678 97.031 29.5744C95.5085 30.9321 93.9836 32.1474 92.3993 33.182C88.8257 30.5164 84.5753 28.9543 79.9999 28.9543C75.4244 28.9543 71.1743 30.5165 67.6007 33.182C66.0164 32.1474 64.4915 30.9321 62.969 29.5744C67.7709 25.5678 73.6571 23.2273 80 23.2273ZM79.9999 31.9543C83.4198 31.9543 86.6562 32.9831 89.5068 34.8231C86.7075 36.1703 83.6281 36.9545 80 36.9545C76.3718 36.9545 73.2925 36.1703 70.4932 34.8231C73.3437 32.9831 76.5799 31.9543 79.9999 31.9543ZM67.462 164.409L67.2899 164.368C57.4862 162.022 48.6247 157.022 41.3843 150.121C39.8125 151.201 38.1465 152.24 36.3689 153.223C39.5494 156.394 43.0318 159.222 46.764 161.652L45.1271 164.166C40.9536 161.449 37.083 158.26 33.58 154.669C31.813 155.527 29.9432 156.326 27.9569 157.054C29.48 158.71 31.0727 160.293 32.7299 161.799L30.7127 164.019C28.6625 162.157 26.708 160.181 24.8578 158.1C18.0073 160.219 9.87616 161.5 0 161.5V158.5C10.0587 158.5 18.1643 157.136 24.873 154.947C27.9206 153.953 30.6853 152.788 33.2186 151.499C35.9434 150.112 38.4051 148.58 40.6668 146.96C43.0871 145.227 45.2808 143.392 47.3263 141.523C49.5224 139.516 51.5415 137.476 53.493 135.476C53.7831 135.179 54.0719 134.882 54.3598 134.587L54.36 134.586L54.3603 134.586L54.3607 134.586L54.3623 134.584L54.3629 134.583L54.3637 134.583L54.3648 134.581C56.1636 132.734 57.925 130.926 59.699 129.262C61.9865 127.116 64.3416 125.165 66.9222 123.612C70.6771 121.352 74.8764 119.955 80 119.955C85.1236 119.955 89.3229 121.352 93.0778 123.612C95.6584 125.165 98.0135 127.116 100.301 129.262C102.077 130.927 103.84 132.738 105.64 134.587L105.657 134.604C105.939 134.894 106.223 135.185 106.507 135.476C108.458 137.476 110.478 139.516 112.674 141.523C114.719 143.392 116.913 145.227 119.333 146.96C121.595 148.58 124.057 150.112 126.781 151.499C129.315 152.788 132.079 153.953 135.127 154.947C141.836 157.136 149.941 158.5 160 158.5V161.5C150.124 161.5 141.993 160.219 135.142 158.1C133.292 160.181 131.337 162.157 129.287 164.019L127.27 161.799C128.927 160.293 130.52 158.71 132.043 157.054C130.057 156.326 128.187 155.527 126.42 154.669C122.917 158.26 119.046 161.449 114.873 164.166L113.236 161.652C116.968 159.222 120.451 156.394 123.631 153.223C121.854 152.24 120.187 151.201 118.616 150.121C111.375 157.022 102.514 162.022 92.7101 164.368L92.538 164.409H67.462ZM48.3205 144.664C46.9186 145.907 45.4388 147.137 43.8604 148.333C50.6204 154.651 58.8071 159.22 67.8173 161.409H92.1827C101.193 159.22 109.38 154.651 116.14 148.333C114.561 147.137 113.081 145.907 111.68 144.664C103.108 152.44 92.0651 157.136 80 157.136C67.9349 157.136 56.8915 152.44 48.3205 144.664ZM80 154.136C91.1646 154.136 101.424 149.832 109.457 142.629C108.028 141.28 106.675 139.93 105.375 138.608C98.4262 144.73 89.6091 148.409 80 148.409C70.3908 148.409 61.5738 144.73 54.6252 138.608C53.3254 139.93 51.9722 141.28 50.5432 142.629C58.5763 149.832 68.8354 154.136 80 154.136ZM80 145.409C88.7639 145.409 96.8463 142.079 103.276 136.459C101.893 135.039 100.564 133.678 99.2403 132.396C93.8999 136.956 87.2397 139.682 80 139.682C72.7603 139.682 66.1001 136.956 60.7597 132.396C59.4357 133.678 58.1067 135.039 56.7244 136.459C63.1537 142.079 71.2361 145.409 80 145.409ZM80 136.682C86.3429 136.682 92.2291 134.341 97.031 130.335C95.5085 128.977 93.9836 127.762 92.3993 126.727C88.8257 129.393 84.5753 130.955 79.9999 130.955C75.4244 130.955 71.1743 129.393 67.6007 126.727C66.0164 127.762 64.4915 128.977 62.969 130.335C67.7709 134.341 73.6571 136.682 80 136.682ZM79.9999 127.955C83.4198 127.955 86.6562 126.926 89.5068 125.086C86.7075 123.739 83.6281 122.955 80 122.955C76.3718 122.955 73.2925 123.739 70.4932 125.086C73.3437 126.926 76.5799 127.955 79.9999 127.955ZM0.81608 111.804L0.824505 111.799L0.843219 111.786L0.910759 111.742C0.968913 111.703 1.053 111.647 1.161 111.573C1.37697 111.427 1.68869 111.211 2.07988 110.931C2.862 110.371 3.96338 109.55 5.25346 108.503C7.82888 106.411 11.1795 103.393 14.2446 99.7042C15.8145 97.815 17.3287 95.7268 18.6263 93.477L26.7477 101.597C25.6063 102.822 24.5047 104.039 23.4346 105.22L23.4341 105.221C22.7857 105.937 22.1488 106.64 21.5217 107.325C19.3043 109.746 17.1895 111.958 14.9997 113.84C10.6541 117.574 6.07884 119.955 6.10352e-05 119.955H-7.31812V143.318H6.10352e-05C16.7439 143.318 27.3646 133.286 37.8472 123.384L37.8503 123.381L37.8534 123.378C38.2756 122.979 38.6975 122.58 39.1195 122.183C50.1158 111.823 61.368 101.864 79.9999 101.864C98.6319 101.864 109.884 111.823 120.88 122.183C121.305 122.582 121.729 122.983 122.153 123.384C132.635 133.286 143.256 143.318 160 143.318H167.318V119.955H160C153.921 119.955 149.346 117.574 145 113.84C142.81 111.958 140.696 109.746 138.478 107.325C137.851 106.64 137.214 105.937 136.566 105.221C135.495 104.039 134.394 102.822 133.252 101.597L141.374 93.477C142.671 95.7268 144.185 97.815 145.755 99.7042C148.821 103.393 152.171 106.411 154.747 108.503C156.037 109.55 157.138 110.371 157.92 110.931C158.311 111.211 158.623 111.427 158.839 111.573C158.947 111.647 159.031 111.703 159.089 111.742L159.157 111.786L159.175 111.799L159.184 111.804C159.645 112.103 160.233 112.126 160.716 111.863C161.199 111.601 161.5 111.095 161.5 110.545V49.4546C161.5 48.9048 161.199 48.3991 160.716 48.1366C160.233 47.8741 159.645 47.8969 159.184 48.196L160 49.4546C159.184 48.196 159.183 48.1966 159.183 48.1967L159.175 48.2015L159.157 48.2137L159.089 48.2583C159.031 48.2969 158.947 48.3531 158.839 48.4266C158.623 48.5734 158.311 48.7889 157.92 49.0691C157.138 49.6295 156.037 50.4496 154.747 51.4974C152.171 53.5893 148.821 56.6073 145.755 60.2958C144.178 62.1945 142.666 64.2819 141.374 66.5229L133.114 58.2655C134.238 57.0577 135.324 55.859 136.379 54.6941L136.38 54.6926L136.383 54.6895L136.384 54.6885C137.032 53.9723 137.669 53.2689 138.296 52.584C140.514 50.1627 142.629 47.9511 144.818 46.0694C149.164 42.3353 153.739 39.9545 159.818 39.9545H167.136V16.5908H159.818C143.074 16.5908 132.453 26.6234 121.971 36.5256L121.951 36.5446L121.93 36.5638L121.91 36.5831C121.506 36.9646 121.102 37.3459 120.699 37.7263C109.702 48.0865 98.45 58.0454 79.8181 58.0454C61.1861 58.0454 49.9339 48.0865 38.9376 37.7263C38.5145 37.3277 38.0916 36.9282 37.6685 36.5285L37.6654 36.5256L37.6653 36.5255L37.6653 36.5255C27.1827 26.6234 16.5619 16.5908 -0.181824 16.5908H-7.5V39.9545H-0.181824C5.89696 39.9545 10.4722 42.3353 14.8178 46.0694C17.0076 47.9511 19.1224 50.1627 21.3398 52.584C21.9656 53.2674 22.601 53.9691 23.248 54.6835L23.2486 54.6843L23.2503 54.6861L23.2513 54.6873L23.2522 54.6883L23.2524 54.6885L23.2528 54.6889C24.364 55.916 25.509 57.1805 26.6974 58.4538L18.6264 66.5229C17.3338 64.2819 15.8224 62.1945 14.2446 60.2958C11.1795 56.6073 7.82888 53.5893 5.25346 51.4974C3.96338 50.4496 2.862 49.6295 2.07988 49.0691C1.68869 48.7889 1.37697 48.5734 1.161 48.4266C1.053 48.3531 0.968912 48.2969 0.910758 48.2583L0.843219 48.2137L0.824505 48.2015L0.817211 48.1967C0.816956 48.1966 0.81608 48.196 0 49.4546L0.81608 48.196C0.354799 47.8969 -0.233147 47.8741 -0.716198 48.1366C-1.19925 48.3991 -1.5 48.9048 -1.5 49.4546V110.545C-1.5 111.095 -1.19925 111.601 -0.716198 111.863C-0.233147 112.126 0.354799 112.103 0.81608 111.804ZM111.998 74.7802C120.081 70.8424 126.031 65.6175 131.049 60.4427L139.923 69.3147C139.148 70.9909 138.512 72.7427 138.074 74.5568C137.649 76.317 137.409 78.1361 137.409 80C137.409 83.7789 138.392 87.3745 139.923 90.6853L131.186 99.4203C126.178 94.2606 120.238 89.0551 112.18 85.129C107.607 82.9012 102.377 81.0975 96.2781 79.9372C102.299 78.7757 107.471 76.9858 111.998 74.7802ZM20.0771 69.3147L28.7666 60.6272C33.7467 65.7415 39.6516 70.8892 47.6384 74.7802C52.2111 77.0079 57.441 78.8117 63.5399 79.972C57.5189 81.1334 52.3474 82.9234 47.8203 85.129C39.7615 89.0551 33.8223 94.2606 28.814 99.4202L20.0771 90.6853C21.6076 87.3745 22.5909 83.7789 22.5909 80C22.5909 78.1361 22.3513 76.317 21.9259 74.5568C21.4875 72.7427 20.8518 70.9909 20.0771 69.3147ZM1.5 52.3671C2.04979 52.7821 2.67771 53.2702 3.36205 53.8261C5.6251 55.6642 8.48573 58.2269 11.1753 61.3174C9.96786 63.0167 8.46635 65.4839 7.17848 68.3347C5.61783 71.7892 4.31818 75.9222 4.31818 80C4.31818 84.0777 5.61783 88.2108 7.17848 91.6653C8.46635 94.516 9.96786 96.9833 11.1753 98.6826C8.48573 101.773 5.6251 104.336 3.36205 106.174C2.67771 106.73 2.04979 107.218 1.5 107.633V52.3671ZM13.1514 96.265C12.3317 95.0449 11.394 93.4786 10.5128 91.6983L17.9644 88.0056C16.7979 90.9447 15.0938 93.7247 13.1514 96.265ZM16.5986 85.3342L9.28491 88.9586C8.41021 86.7766 7.7287 84.4507 7.45224 82.1558L16.5986 85.3342ZM7.45224 77.8441C7.7287 75.5493 8.4102 73.2234 9.2849 71.0414L16.5986 74.6657L7.45224 77.8441ZM17.9645 71.9945L10.5127 68.3017C11.394 66.5214 12.3317 64.9551 13.1514 63.735C14.5701 65.5905 15.8691 67.5837 16.9231 69.6806C17.305 70.4403 17.6539 71.212 17.9645 71.9945ZM19.338 76.8898C19.5031 77.9152 19.5909 78.9527 19.5909 80C19.5909 81.0475 19.5029 82.0852 19.3378 83.1102L10.3878 80L19.338 76.8898ZM30.5908 80.0001C30.5908 81.5817 31.8729 82.8638 33.4545 82.8638C35.036 82.8638 36.3181 81.5817 36.3181 80.0001C36.3181 78.4186 35.036 77.1365 33.4545 77.1365C31.8729 77.1365 30.5908 78.4186 30.5908 80.0001ZM33.4545 85.8638C30.2161 85.8638 27.5908 83.2385 27.5908 80.0001C27.5908 76.7617 30.2161 74.1365 33.4545 74.1365C36.6929 74.1365 39.3181 76.7617 39.3181 80.0001C39.3181 83.2385 36.6929 85.8638 33.4545 85.8638ZM158.5 52.3671C157.95 52.7821 157.322 53.2702 156.638 53.8261C154.375 55.6642 151.514 58.2269 148.825 61.3174C150.032 63.0167 151.534 65.4839 152.822 68.3347C154.382 71.7892 155.682 75.9222 155.682 80C155.682 84.0777 154.382 88.2108 152.822 91.6653C151.534 94.516 150.032 96.9833 148.825 98.6826C151.514 101.773 154.375 104.336 156.638 106.174C157.322 106.73 157.95 107.218 158.5 107.633V52.3671ZM146.849 96.265C147.668 95.0449 148.606 93.4786 149.487 91.6983L142.036 88.0056C143.202 90.9447 144.906 93.7247 146.849 96.265ZM143.401 85.3342L150.715 88.9586C151.59 86.7766 152.271 84.4507 152.548 82.1558L143.401 85.3342ZM152.548 77.8441C152.271 75.5493 151.59 73.2234 150.715 71.0414L143.401 74.6657L152.548 77.8441ZM142.035 71.9945L149.487 68.3017C148.606 66.5214 147.668 64.9551 146.849 63.735C145.43 65.5905 144.131 67.5837 143.077 69.6806C142.695 70.4403 142.346 71.212 142.035 71.9945ZM140.662 76.8898C140.497 77.9152 140.409 78.9527 140.409 80C140.409 81.0475 140.497 82.0852 140.662 83.1102L149.612 80L140.662 76.8898ZM164.318 134.419V140.318H160C144.472 140.318 134.664 131.064 123.983 120.985L123.944 120.948C123.609 120.633 123.274 120.316 122.938 119.999C111.934 109.632 99.9134 98.8638 79.9999 98.8638C60.0865 98.8638 48.0659 109.632 37.0623 119.999C36.7128 120.329 36.3643 120.657 36.0169 120.985L36.0168 120.985C25.3356 131.064 15.5281 140.318 6.10352e-05 140.318H-4.31812V134.419C-3.40361 135.835 -1.81128 136.773 6.10352e-05 136.773C2.83679 136.773 5.13643 134.473 5.13643 131.637C5.13643 128.8 2.83679 126.5 6.10352e-05 126.5C-1.81128 126.5 -3.40361 127.438 -4.31812 128.854V122.955H6.10352e-05C7.01219 122.955 12.2551 120.154 16.9549 116.115C19.2878 114.11 21.5026 111.788 23.7341 109.351C24.383 108.643 25.0319 107.926 25.6864 107.203L25.6889 107.201L25.6908 107.198L25.6913 107.198C27.3043 105.417 28.9513 103.598 30.7158 101.769C35.6537 96.6516 41.3768 91.6052 49.1342 87.8259C56.885 84.0499 66.7475 81.5002 79.9999 81.5002C93.2523 81.5002 103.115 84.0499 110.866 87.8259C118.623 91.6052 124.346 96.6516 129.284 101.769C131.049 103.598 132.696 105.417 134.309 107.198L134.315 107.205L134.32 107.21C134.972 107.931 135.619 108.645 136.266 109.351C138.497 111.788 140.712 114.11 143.045 116.115C147.745 120.154 152.988 122.955 160 122.955H164.318V128.854C163.404 127.438 161.811 126.5 160 126.5C157.163 126.5 154.864 128.8 154.864 131.637C154.864 134.473 157.163 136.773 160 136.773C161.811 136.773 163.404 135.835 164.318 134.419ZM162.136 131.637C162.136 132.816 161.18 133.773 160 133.773C158.82 133.773 157.864 132.816 157.864 131.637C157.864 130.457 158.82 129.5 160 129.5C161.18 129.5 162.136 130.457 162.136 131.637ZM2.13643 131.637C2.13643 132.816 1.17995 133.773 6.10352e-05 133.773C-1.17981 133.773 -2.13629 132.816 -2.13629 131.637C-2.13629 130.457 -1.17981 129.5 6.10352e-05 129.5C1.17995 129.5 2.13643 130.457 2.13643 131.637ZM140.318 122.182C140.318 123.362 139.362 124.318 138.182 124.318C137.002 124.318 136.045 123.362 136.045 122.182C136.045 121.002 137.002 120.046 138.182 120.046C139.362 120.046 140.318 121.002 140.318 122.182ZM138.182 127.318C141.018 127.318 143.318 125.019 143.318 122.182C143.318 119.345 141.018 117.046 138.182 117.046C135.345 117.046 133.045 119.345 133.045 122.182C133.045 125.019 135.345 127.318 138.182 127.318ZM21.8183 127.318C24.655 127.318 26.9546 125.019 26.9546 122.182C26.9546 119.345 24.655 117.046 21.8183 117.046C18.9815 117.046 16.6819 119.345 16.6819 122.182C16.6819 125.019 18.9815 127.318 21.8183 127.318ZM23.9546 122.182C23.9546 123.362 22.9981 124.318 21.8183 124.318C20.6384 124.318 19.6819 123.362 19.6819 122.182C19.6819 121.002 20.6384 120.046 21.8183 120.046C22.9981 120.046 23.9546 121.002 23.9546 122.182ZM125.045 108.364C125.045 109.544 124.089 110.5 122.909 110.5C121.729 110.5 120.773 109.544 120.773 108.364C120.773 107.184 121.729 106.227 122.909 106.227C124.089 106.227 125.045 107.184 125.045 108.364ZM122.909 113.5C125.746 113.5 128.045 111.201 128.045 108.364C128.045 105.527 125.746 103.227 122.909 103.227C120.072 103.227 117.773 105.527 117.773 108.364C117.773 111.201 120.072 113.5 122.909 113.5ZM37.091 113.5C39.9277 113.5 42.2273 111.201 42.2273 108.364C42.2273 105.527 39.9277 103.227 37.091 103.227C34.2542 103.227 31.9546 105.527 31.9546 108.364C31.9546 111.201 34.2542 113.5 37.091 113.5ZM39.2273 108.364C39.2273 109.544 38.2709 110.5 37.091 110.5C35.9111 110.5 34.9546 109.544 34.9546 108.364C34.9546 107.184 35.9111 106.227 37.091 106.227C38.2709 106.227 39.2273 107.184 39.2273 108.364ZM111.227 97.4547C111.227 98.6346 110.271 99.5911 109.091 99.5911C107.911 99.5911 106.954 98.6346 106.954 97.4547C106.954 96.2748 107.911 95.3184 109.091 95.3184C110.271 95.3184 111.227 96.2748 111.227 97.4547ZM109.091 102.591C111.928 102.591 114.227 100.291 114.227 97.4547C114.227 94.618 111.928 92.3184 109.091 92.3184C106.254 92.3184 103.954 94.618 103.954 97.4547C103.954 100.291 106.254 102.591 109.091 102.591ZM50.9091 102.591C53.7459 102.591 56.0455 100.291 56.0455 97.4547C56.0455 94.618 53.7459 92.3184 50.9091 92.3184C48.0724 92.3184 45.7728 94.618 45.7728 97.4547C45.7728 100.291 48.0724 102.591 50.9091 102.591ZM53.0455 97.4547C53.0455 98.6346 52.089 99.5911 50.9091 99.5911C49.7293 99.5911 48.7728 98.6346 48.7728 97.4547C48.7728 96.2748 49.7293 95.3184 50.9091 95.3184C52.089 95.3184 53.0455 96.2748 53.0455 97.4547ZM97.409 91.6365C97.409 92.8164 96.4525 93.7729 95.2727 93.7729C94.0928 93.7729 93.1363 92.8164 93.1363 91.6365C93.1363 90.4567 94.0928 89.5002 95.2727 89.5002C96.4525 89.5002 97.409 90.4567 97.409 91.6365ZM95.2727 96.7729C98.1094 96.7729 100.409 94.4733 100.409 91.6365C100.409 88.7998 98.1094 86.5002 95.2727 86.5002C92.4359 86.5002 90.1363 88.7998 90.1363 91.6365C90.1363 94.4733 92.4359 96.7729 95.2727 96.7729ZM64.7273 96.7729C67.5641 96.7729 69.8637 94.4733 69.8637 91.6365C69.8637 88.7998 67.5641 86.5002 64.7273 86.5002C61.8906 86.5002 59.591 88.7998 59.591 91.6365C59.591 94.4733 61.8906 96.7729 64.7273 96.7729ZM66.8637 91.6365C66.8637 92.8164 65.9072 93.7729 64.7273 93.7729C63.5475 93.7729 62.591 92.8164 62.591 91.6365C62.591 90.4567 63.5475 89.5002 64.7273 89.5002C65.9072 89.5002 66.8637 90.4567 66.8637 91.6365ZM82.1363 90.182C82.1363 91.3619 81.1798 92.3184 79.9999 92.3184C78.8201 92.3184 77.8637 91.3619 77.8637 90.182C77.8637 89.002 78.8201 88.0456 79.9999 88.0456C81.1798 88.0456 82.1363 89.0021 82.1363 90.182ZM79.9999 95.3184C82.8367 95.3184 85.1363 93.0187 85.1363 90.182C85.1363 87.3453 82.8367 85.0456 79.9999 85.0456C77.1631 85.0456 74.8637 87.3453 74.8637 90.182C74.8637 93.0187 77.1631 95.3184 79.9999 95.3184ZM164.136 19.5908V25.4902C163.222 24.0739 161.629 23.1363 159.818 23.1363C156.981 23.1363 154.682 25.4359 154.682 28.2726C154.682 31.1094 156.981 33.409 159.818 33.409C161.629 33.409 163.222 32.4714 164.136 31.0551V36.9545H159.818C152.806 36.9545 147.563 39.7555 142.863 43.7941C140.53 45.7987 138.316 48.1212 136.084 50.5579C135.435 51.2663 134.787 51.9827 134.132 52.7053L134.127 52.7108C132.514 54.4923 130.867 56.3114 129.102 58.1402C124.164 63.2576 118.441 68.304 110.684 72.0833C102.933 75.8593 93.0705 78.409 79.8181 78.409C66.5656 78.409 56.7032 75.8593 48.9523 72.0833C41.1949 68.304 35.4718 63.2576 30.5339 58.1402C28.7695 56.3116 27.1226 54.4928 25.5097 52.7116L25.5093 52.7112L25.5093 52.7111L25.5092 52.7111L25.5089 52.7107L25.5079 52.7097L25.5046 52.706C24.8501 51.9831 24.2011 51.2665 23.5522 50.5579C21.3207 48.1212 19.1059 45.7987 16.773 43.7941C12.0732 39.7555 6.83031 36.9545 -0.181824 36.9545H-4.5V31.0551C-3.58549 32.4714 -1.99316 33.409 -0.181824 33.409C2.65491 33.409 4.95454 31.1094 4.95454 28.2726C4.95454 25.4359 2.65491 23.1363 -0.181824 23.1363C-1.99316 23.1363 -3.58549 24.0739 -4.5 25.4902V19.5908H-0.181824C15.3462 19.5908 25.1538 28.8452 35.835 38.9239L35.835 38.9239C36.1825 39.2518 36.5309 39.5805 36.8804 39.9099C47.8841 50.277 59.9046 61.0454 79.8181 61.0454C99.7315 61.0454 111.752 50.277 122.756 39.9099C123.105 39.5805 123.454 39.2518 123.801 38.9239C134.482 28.8452 144.29 19.5908 159.818 19.5908H164.136ZM159.818 26.1363C160.998 26.1363 161.954 27.0928 161.954 28.2726C161.954 29.4525 160.998 30.409 159.818 30.409C158.638 30.409 157.682 29.4525 157.682 28.2726C157.682 27.0928 158.638 26.1363 159.818 26.1363ZM-0.181824 26.1363C0.998062 26.1363 1.95454 27.0928 1.95454 28.2726C1.95454 29.4525 0.998062 30.409 -0.181824 30.409C-1.36169 30.409 -2.31818 29.4525 -2.31818 28.2726C-2.31818 27.0928 -1.36169 26.1363 -0.181824 26.1363ZM138 35.5908C139.18 35.5908 140.136 36.5473 140.136 37.7272C140.136 38.9071 139.18 39.8635 138 39.8635C136.82 39.8635 135.864 38.9071 135.864 37.7272C135.864 36.5473 136.82 35.5908 138 35.5908ZM143.136 37.7272C143.136 34.8904 140.837 32.5908 138 32.5908C135.163 32.5908 132.863 34.8904 132.863 37.7272C132.863 40.5639 135.163 42.8635 138 42.8635C140.837 42.8635 143.136 40.5639 143.136 37.7272ZM26.7727 37.7272C26.7727 34.8905 24.4731 32.5908 21.6364 32.5908C18.7996 32.5908 16.5 34.8904 16.5 37.7272C16.5 40.5639 18.7996 42.8635 21.6364 42.8635C24.4731 42.8635 26.7727 40.5639 26.7727 37.7272ZM21.6364 35.5908C22.8162 35.5908 23.7727 36.5473 23.7727 37.7272C23.7727 38.9071 22.8162 39.8635 21.6364 39.8635C20.4565 39.8635 19.5 38.9071 19.5 37.7272C19.5 36.5473 20.4565 35.5908 21.6364 35.5908ZM122.727 49.409C123.907 49.409 124.864 50.3655 124.864 51.5454C124.864 52.7253 123.907 53.6817 122.727 53.6817C121.547 53.6817 120.591 52.7253 120.591 51.5454C120.591 50.3655 121.547 49.409 122.727 49.409ZM127.864 51.5454C127.864 48.7086 125.564 46.409 122.727 46.409C119.89 46.409 117.591 48.7086 117.591 51.5454C117.591 54.3821 119.89 56.6817 122.727 56.6817C125.564 56.6817 127.864 54.3821 127.864 51.5454ZM42.0455 51.5454C42.0455 48.7086 39.7458 46.409 36.9091 46.409C34.0724 46.409 31.7727 48.7086 31.7727 51.5454C31.7727 54.3821 34.0724 56.6817 36.9091 56.6817C39.7458 56.6817 42.0455 54.3821 42.0455 51.5454ZM36.9091 49.409C38.089 49.409 39.0455 50.3655 39.0455 51.5454C39.0455 52.7252 38.089 53.6817 36.9091 53.6817C35.7292 53.6817 34.7727 52.7252 34.7727 51.5454C34.7727 50.3655 35.7292 49.409 36.9091 49.409ZM108.909 60.3181C110.089 60.3181 111.045 61.2746 111.045 62.4545C111.045 63.6343 110.089 64.5908 108.909 64.5908C107.729 64.5908 106.773 63.6343 106.773 62.4545C106.773 61.2746 107.729 60.3181 108.909 60.3181ZM114.045 62.4545C114.045 59.6177 111.746 57.3181 108.909 57.3181C106.072 57.3181 103.773 59.6177 103.773 62.4545C103.773 65.2912 106.072 67.5908 108.909 67.5908C111.746 67.5908 114.045 65.2912 114.045 62.4545ZM55.8636 62.4545C55.8636 59.6177 53.564 57.3181 50.7273 57.3181C47.8905 57.3181 45.5909 59.6177 45.5909 62.4545C45.5909 65.2912 47.8905 67.5908 50.7273 67.5908C53.564 67.5908 55.8636 65.2912 55.8636 62.4545ZM50.7273 60.3181C51.9072 60.3181 52.8636 61.2746 52.8636 62.4545C52.8636 63.6343 51.9072 64.5908 50.7273 64.5908C49.5474 64.5908 48.5909 63.6343 48.5909 62.4545C48.5909 61.2746 49.5474 60.3181 50.7273 60.3181ZM95.0908 66.1363C96.2707 66.1363 97.2271 67.0928 97.2271 68.2726C97.2271 69.4525 96.2707 70.409 95.0908 70.409C93.9109 70.409 92.9544 69.4525 92.9544 68.2726C92.9544 67.0928 93.9109 66.1363 95.0908 66.1363ZM100.227 68.2726C100.227 65.4359 97.9275 63.1363 95.0908 63.1363C92.2541 63.1363 89.9544 65.4359 89.9544 68.2726C89.9544 71.1094 92.2541 73.409 95.0908 73.409C97.9275 73.409 100.227 71.1094 100.227 68.2726ZM69.6818 68.2726C69.6818 65.4359 67.3822 63.1363 64.5454 63.1363C61.7087 63.1363 59.4091 65.4359 59.4091 68.2726C59.4091 71.1094 61.7087 73.409 64.5454 73.409C67.3822 73.409 69.6818 71.1094 69.6818 68.2726ZM64.5454 66.1363C65.7253 66.1363 66.6818 67.0928 66.6818 68.2726C66.6818 69.4525 65.7253 70.409 64.5454 70.409C63.3656 70.409 62.4091 69.4525 62.4091 68.2726C62.4091 67.0928 63.3656 66.1363 64.5454 66.1363ZM79.8181 67.5908C80.9979 67.5908 81.9544 68.5473 81.9544 69.7272C81.9544 70.9071 80.9979 71.8635 79.8181 71.8635C78.6382 71.8635 77.6818 70.9071 77.6818 69.7272C77.6818 68.5472 78.6382 67.5908 79.8181 67.5908ZM84.9544 69.7272C84.9544 66.8904 82.6548 64.5908 79.8181 64.5908C76.9813 64.5908 74.6818 66.8905 74.6818 69.7272C74.6818 72.5639 76.9813 74.8635 79.8181 74.8635C82.6548 74.8635 84.9544 72.5639 84.9544 69.7272ZM129.409 80.0001C129.409 81.5817 128.127 82.8638 126.546 82.8638C124.964 82.8638 123.682 81.5817 123.682 80.0001C123.682 78.4186 124.964 77.1365 126.546 77.1365C128.127 77.1365 129.409 78.4186 129.409 80.0001ZM126.546 85.8638C129.784 85.8638 132.409 83.2385 132.409 80.0001C132.409 76.7617 129.784 74.1365 126.546 74.1365C123.307 74.1365 120.682 76.7617 120.682 80.0001C120.682 83.2385 123.307 85.8638 126.546 85.8638ZM161.5 152.773H160C148.309 152.773 139.56 150.217 132.463 146.339C125.392 142.476 120.035 137.338 115.111 132.324C114.508 131.709 113.91 131.096 113.317 130.487C104.191 121.124 96.0517 112.773 80 112.773C63.9483 112.773 55.809 121.124 46.6829 130.487L46.6775 130.493C46.0861 131.1 45.4906 131.711 44.8885 132.324C39.9654 137.338 34.6082 142.476 27.5374 146.339C20.4404 150.217 11.6909 152.773 0 152.773H-1.5V149.773H0C11.2182 149.773 19.4687 147.329 26.099 143.707C32.7555 140.07 37.8528 135.208 42.7478 130.222C43.3739 129.584 43.9969 128.944 44.6194 128.304C53.681 118.991 62.6504 109.773 80 109.773C97.3496 109.773 106.319 118.991 115.381 128.304C116.003 128.944 116.626 129.584 117.252 130.222C122.147 135.208 127.245 140.07 133.901 143.707C140.531 147.329 148.782 149.773 160 149.773H161.5V152.773ZM159.818 7.13623H161.318V10.1362H159.818C148.6 10.1362 140.349 12.5801 133.719 16.2026C127.063 19.8394 121.965 24.7015 117.07 29.6871C116.444 30.3248 115.821 30.965 115.199 31.6048C106.137 40.9179 97.1677 50.1362 79.8181 50.1362C62.4685 50.1362 53.4991 40.9179 44.4375 31.6048L44.4364 31.6037C43.8143 30.9643 43.1917 30.3245 42.5659 29.6871C37.6709 24.7015 32.5736 19.8394 25.9171 16.2026C19.2868 12.5801 11.0363 10.1362 -0.181885 10.1362H-1.68188V7.13623H-0.181885C11.509 7.13623 20.2585 9.69239 27.3555 13.5699C34.4263 17.4331 39.7835 22.571 44.7066 27.5853C45.3097 28.1996 45.9062 28.8116 46.4986 29.4194L46.501 29.4218C55.6272 38.7853 63.7664 47.1362 79.8181 47.1362C95.8698 47.1362 104.009 38.7853 113.135 29.4218C113.728 28.8133 114.326 28.2004 114.93 27.5853C119.853 22.571 125.21 17.4331 132.281 13.5699C139.378 9.69239 148.127 7.13623 159.818 7.13623Z" fill="#23204B" />
    </pattern>


    <pattern id="fill" viewBox="0 0 160 160" width="9%" height="9%" patternTransform="rotate(-60)">
      <path d="M0 -0.0909092C10.1966 -0.0909092 18.4612 1.29273 25.3381 3.5357C28.4609 4.55423 31.2975 5.74996 33.8989 7.0738C36.697 8.49773 39.2229 10.0699 41.5401 11.7291C44.0192 13.5043 46.2594 15.3792 48.3382 17.279C50.568 19.3166 52.6121 21.3829 54.5665 23.3856C54.8587 23.6849 55.1489 23.9829 55.4374 24.2791C57.2398 26.1299 58.9764 27.9132 60.7252 29.5536C62.9732 31.6623 65.2414 33.535 67.6957 35.0121C71.242 37.1464 75.1767 38.4545 80 38.4545C84.8233 38.4545 88.758 37.1464 92.3043 35.0121C94.7586 33.535 97.0268 31.6623 99.2748 29.5536C101.024 27.9132 102.76 26.13 104.563 24.2792C104.851 23.983 105.141 23.685 105.433 23.3856C107.388 21.3829 109.432 19.3166 111.662 17.279C113.741 15.3792 115.981 13.5043 118.46 11.7291C120.777 10.0699 123.303 8.49773 126.101 7.0738C128.702 5.74996 131.539 4.55423 134.662 3.5357C141.539 1.29273 149.803 -0.0909092 160 -0.0909092V-3H128.279H114.054H92.361H80H67.639H45.9455H31.7213H0V-0.0909092ZM0 160C10.1966 160 18.4612 158.616 25.3381 156.373C28.4609 155.355 31.2975 154.159 33.8989 152.835C36.697 151.411 39.2229 149.839 41.5401 148.18C44.0192 146.405 46.2594 144.53 48.3382 142.63C50.568 140.593 52.6121 138.526 54.5665 136.524L54.9271 136.154L55.4373 135.63C57.2397 133.779 58.9763 131.996 60.7252 130.356C62.9732 128.247 65.2414 126.374 67.6957 124.897C71.242 122.763 75.1767 121.455 80 121.455C84.8233 121.455 88.758 122.763 92.3043 124.897C94.7586 126.374 97.0268 128.247 99.2748 130.356C101.023 131.995 102.759 133.778 104.56 135.627L104.561 135.628L104.561 135.629L104.562 135.63L104.563 135.63C104.851 135.926 105.141 136.224 105.433 136.524C107.388 138.526 109.432 140.593 111.662 142.63C113.741 144.53 115.981 146.405 118.46 148.18C120.777 149.839 123.303 151.411 126.101 152.835C128.702 154.159 131.539 155.355 134.662 156.373C141.539 158.616 149.803 160 160 160V162.909H128.279H114.054H92.361H80H67.639H45.9455H31.7213H0V160ZM0 110.545V80V49.4546C0 49.4546 7.12371 54.0737 13.0909 61.2544C10.6667 64.3515 5.81818 72.4363 5.81818 80C5.81818 87.5636 10.6667 95.6485 13.0909 98.7456C7.12371 105.926 0 110.545 0 110.545ZM33.4545 75.6365C35.8644 75.6365 37.8181 77.5902 37.8181 80.0001C37.8181 82.4101 35.8644 84.3638 33.4545 84.3638C31.0445 84.3638 29.0908 82.4101 29.0908 80.0001C29.0908 77.5902 31.0445 75.6365 33.4545 75.6365ZM160 110.545V80V49.4546C160 49.4546 152.876 54.0737 146.909 61.2544C149.333 64.3515 154.182 72.4363 154.182 80C154.182 87.5636 149.333 95.6485 146.909 98.7456C152.876 105.926 160 110.545 160 110.545ZM123.075 122.191C111.723 111.474 99.9549 100.364 79.9999 100.364C60.045 100.364 48.2766 111.474 36.9249 122.191C26.3493 132.175 16.1352 141.818 6.10352e-05 141.818H-5.81812V121.455H6.10352e-05C10.758 121.455 17.0955 114.456 24.5625 106.21C35.2681 94.3868 48.2953 80.0002 79.9999 80.0002C111.705 80.0002 124.732 94.3868 135.437 106.21C142.904 114.456 149.242 121.455 160 121.455H165.818V141.818H160C143.865 141.818 133.651 132.175 123.075 122.191ZM156.364 131.637C156.364 129.628 157.992 128 160 128C162.008 128 163.636 129.628 163.636 131.637C163.636 133.645 162.008 135.273 160 135.273C157.992 135.273 156.364 133.645 156.364 131.637ZM134.545 122.182C134.545 120.174 136.173 118.546 138.182 118.546C140.19 118.546 141.818 120.174 141.818 122.182C141.818 124.19 140.19 125.818 138.182 125.818C136.173 125.818 134.545 124.19 134.545 122.182ZM119.273 108.364C119.273 106.355 120.901 104.727 122.909 104.727C124.917 104.727 126.545 106.355 126.545 108.364C126.545 110.372 124.917 112 122.909 112C120.901 112 119.273 110.372 119.273 108.364ZM105.454 97.4547C105.454 95.4464 107.083 93.8184 109.091 93.8184C111.099 93.8184 112.727 95.4464 112.727 97.4547C112.727 99.463 111.099 101.091 109.091 101.091C107.083 101.091 105.454 99.463 105.454 97.4547ZM91.6363 91.6365C91.6363 89.6282 93.2644 88.0002 95.2727 88.0002C97.281 88.0002 98.909 89.6282 98.909 91.6365C98.909 93.6449 97.281 95.2729 95.2727 95.2729C93.2644 95.2729 91.6363 93.6449 91.6363 91.6365ZM79.9999 86.5456C82.0082 86.5456 83.6363 88.1737 83.6363 90.182C83.6363 92.1903 82.0082 93.8184 79.9999 93.8184C77.9916 93.8184 76.3637 92.1903 76.3637 90.182C76.3637 88.1737 77.9916 86.5456 79.9999 86.5456ZM3.63643 131.637C3.63643 129.628 2.00837 128 6.10352e-05 128C-2.00825 128 -3.63629 129.628 -3.63629 131.637C-3.63629 133.645 -2.00825 135.273 6.10352e-05 135.273C2.00837 135.273 3.63643 133.645 3.63643 131.637ZM25.4546 122.182C25.4546 120.174 23.8266 118.546 21.8183 118.546C19.8099 118.546 18.1819 120.174 18.1819 122.182C18.1819 124.19 19.8099 125.818 21.8183 125.818C23.8266 125.818 25.4546 124.19 25.4546 122.182ZM40.7273 108.364C40.7273 106.355 39.0993 104.727 37.091 104.727C35.0827 104.727 33.4546 106.355 33.4546 108.364C33.4546 110.372 35.0827 112 37.091 112C39.0993 112 40.7273 110.372 40.7273 108.364ZM54.5455 97.4547C54.5455 95.4464 52.9175 93.8184 50.9091 93.8184C48.9008 93.8184 47.2728 95.4464 47.2728 97.4547C47.2728 99.463 48.9008 101.091 50.9091 101.091C52.9175 101.091 54.5455 99.463 54.5455 97.4547ZM68.3637 91.6365C68.3637 89.6282 66.7356 88.0002 64.7273 88.0002C62.719 88.0002 61.091 89.6282 61.091 91.6365C61.091 93.6449 62.719 95.2729 64.7273 95.2729C66.7356 95.2729 68.3637 93.6449 68.3637 91.6365ZM79.8181 59.5454C99.773 59.5454 111.541 48.435 122.893 37.718C133.469 27.7337 143.683 18.0908 159.818 18.0908H165.636V38.4545H159.818C149.06 38.4545 142.723 45.4534 135.256 53.6996C124.55 65.5224 111.523 79.909 79.8181 79.909C48.1134 79.909 35.0862 65.5224 24.3806 53.6996C16.9137 45.4534 10.5761 38.4545 -0.181824 38.4545H-6V18.0908H-0.181824C15.9533 18.0908 26.1674 27.7337 36.743 37.718C48.0948 48.435 59.8631 59.5454 79.8181 59.5454ZM159.818 31.909C157.81 31.909 156.182 30.2809 156.182 28.2726C156.182 26.2643 157.81 24.6363 159.818 24.6363C161.826 24.6363 163.454 26.2643 163.454 28.2726C163.454 30.2809 161.826 31.909 159.818 31.909ZM138 41.3635C135.992 41.3635 134.364 39.7355 134.364 37.7272C134.364 35.7189 135.992 34.0908 138 34.0908C140.008 34.0908 141.636 35.7189 141.636 37.7272C141.636 39.7355 140.008 41.3635 138 41.3635ZM122.727 55.1817C120.719 55.1817 119.091 53.5537 119.091 51.5454C119.091 49.5371 120.719 47.909 122.727 47.909C124.735 47.909 126.364 49.5371 126.364 51.5454C126.364 53.5537 124.735 55.1817 122.727 55.1817ZM108.909 66.0908C106.901 66.0908 105.273 64.4628 105.273 62.4545C105.273 60.4461 106.901 58.8181 108.909 58.8181C110.917 58.8181 112.545 60.4461 112.545 62.4545C112.545 64.4628 110.917 66.0908 108.909 66.0908ZM95.0908 71.909C93.0825 71.909 91.4544 70.2809 91.4544 68.2726C91.4544 66.2643 93.0825 64.6363 95.0908 64.6363C97.0991 64.6363 98.7271 66.2643 98.7271 68.2726C98.7271 70.2809 97.0991 71.909 95.0908 71.909ZM83.4544 69.7272C83.4544 71.7355 81.8264 73.3635 79.8181 73.3635C77.8097 73.3635 76.1818 71.7355 76.1818 69.7272C76.1818 67.7189 77.8097 66.0908 79.8181 66.0908C81.8264 66.0908 83.4544 67.7189 83.4544 69.7272ZM-0.181824 31.909C1.82648 31.909 3.45454 30.2809 3.45454 28.2726C3.45454 26.2643 1.82648 24.6363 -0.181824 24.6363C-2.19013 24.6363 -3.81818 26.2643 -3.81818 28.2726C-3.81818 30.2809 -2.19013 31.909 -0.181824 31.909ZM21.6364 41.3635C23.6447 41.3635 25.2727 39.7355 25.2727 37.7272C25.2727 35.7189 23.6447 34.0908 21.6364 34.0908C19.6281 34.0908 18 35.7189 18 37.7272C18 39.7355 19.6281 41.3635 21.6364 41.3635ZM36.9091 55.1817C38.9174 55.1817 40.5455 53.5537 40.5455 51.5454C40.5455 49.5371 38.9174 47.909 36.9091 47.909C34.9008 47.909 33.2727 49.5371 33.2727 51.5454C33.2727 53.5537 34.9008 55.1817 36.9091 55.1817ZM50.7273 66.0908C52.7356 66.0908 54.3636 64.4628 54.3636 62.4545C54.3636 60.4461 52.7356 58.8181 50.7273 58.8181C48.719 58.8181 47.0909 60.4461 47.0909 62.4545C47.0909 64.4628 48.719 66.0908 50.7273 66.0908ZM64.5454 71.909C66.5538 71.909 68.1818 70.2809 68.1818 68.2726C68.1818 66.2643 66.5538 64.6363 64.5454 64.6363C62.5371 64.6363 60.9091 66.2643 60.9091 68.2726C60.9091 70.2809 62.5371 71.909 64.5454 71.909ZM126.546 75.6365C124.136 75.6365 122.182 77.5902 122.182 80.0001C122.182 82.4101 124.136 84.3638 126.546 84.3638C128.956 84.3638 130.909 82.4101 130.909 80.0001C130.909 77.5902 128.956 75.6365 126.546 75.6365Z" fill="black" fill-opacity="0.1"/>
    </pattern>
  </defs>

  <rect id="pat-rect" width="1350" height="1350" fill-opacity="0.3" fill="url(#pattern-4)"/>
  <rect id="fill-rect" width="1350" height="1350" fill-opacity="0.3" fill="url(#fill)"/>
</svg>