<svg width="160" height="160" viewBox="0 0 160 160" fill="none" xmlns="http://www.w3.org/2000/svg">
<g opacity="0.4">
<g clip-path="url(#clip0)">
<path d="M79.2727 40.0002L79.9999 39.2729V40.7275L79.2727 40.0002Z" fill="black" fill-opacity="0.1"/>
<path d="M34.1817 40.0002L24.7272 30.5456L30.5454 24.7275L39.9999 34.182L49.4545 24.7275L55.2727 30.5456L45.8181 40.0002L55.2727 49.4547L49.4545 55.2729L39.9999 45.8184L30.5454 55.2729L24.7272 49.4547L34.1817 40.0002Z" fill="black" fill-opacity="0.1"/>
<path d="M3.6363 -2.18164L13.0908 7.27291L7.27266 13.0911L-2.18188 3.63654V15.2729L7.27266 24.7275L24.7272 7.27291L15.2727 -2.18164H3.6363Z" fill="black" fill-opacity="0.1"/>
<path d="M76.3636 82.182L66.909 72.7275L72.7272 66.9093L82.1817 76.3638V64.7275L72.7272 55.2729L55.2727 72.7275L64.7272 82.182H76.3636Z" fill="black" fill-opacity="0.1"/>
<path d="M13.0908 72.7275L3.6363 82.182H15.2727L24.7272 72.7275L7.27266 55.2729L-2.18188 64.7275V76.3638L7.27266 66.9093L13.0908 72.7275Z" fill="black" fill-opacity="0.1"/>
<path d="M72.7272 24.7275L82.1817 15.2729V3.63654L72.7272 13.0911L66.909 7.27291L76.3636 -2.18164H64.7272L55.2727 7.27291L72.7272 24.7275Z" fill="black" fill-opacity="0.1"/>
<path fill-rule="evenodd" clip-rule="evenodd" d="M-3.27271 -3.27295H83.2728V83.2725H-3.27271V-3.27295ZM29.5428 -1.09113L40 9.36609L50.4572 -1.09113H29.5428ZM53.5428 -1.09113L40 12.4516L26.4572 -1.09113H17.9064L26.2701 7.27251L7.27275 26.2698L-1.09089 17.9062V26.457L12.4519 39.9998L-1.09089 53.5426V62.0934L7.27275 53.7297L26.2701 72.7271L17.9064 81.0907H26.4572L40 67.5479L53.5428 81.0907H62.0936L53.73 72.7271L72.7273 53.7297L81.0909 62.0934V53.5426L67.5482 39.9998L81.0909 26.457V17.9062L72.7273 26.2698L53.73 7.27251L62.0936 -1.09113H53.5428ZM65.1792 -1.09113L56.8155 7.27251L72.7273 23.1843L81.0909 14.8206V6.26983L72.7273 14.6335L65.3663 7.27251L73.73 -1.09113H65.1792ZM76.8155 -1.09113L68.4519 7.27251L72.7273 11.5479L81.0909 3.18427V-1.09113H76.8155ZM81.0909 29.5426L70.6337 39.9998L81.0909 50.457V43.3607L77.73 39.9998L81.0909 36.6388V29.5426ZM81.0909 65.1789L72.7273 56.8153L56.8155 72.7271L65.1792 81.0907H73.73L65.3663 72.7271L72.7273 65.3661L81.0909 73.7297V65.1789ZM81.0909 76.8153L72.7273 68.4517L68.4519 72.7271L76.8155 81.0907H81.0909V76.8153ZM50.4572 81.0907L40 70.6335L29.5428 81.0907H50.4572ZM14.8209 81.0907L23.1845 72.7271L7.27275 56.8153L-1.09089 65.1789V73.7297L7.27275 65.3661L14.6337 72.7271L6.27007 81.0907H14.8209ZM3.18452 81.0907L11.5482 72.7271L7.27275 68.4517L-1.09089 76.8153V81.0907H3.18452ZM-1.09089 50.457L9.36633 39.9998L-1.09089 29.5426V36.6388L2.27007 39.9998L-1.09089 43.3607V50.457ZM-1.09089 14.8206L7.27275 23.1843L23.1845 7.27251L14.8209 -1.09113H6.27007L14.6337 7.27251L7.27275 14.6335L-1.09089 6.26983V14.8206ZM-1.09089 3.18427L7.27275 11.5479L11.5482 7.27251L3.18452 -1.09113H-1.09089V3.18427ZM30.5455 11.5479L40 21.0025L49.4546 11.5479L68.4519 30.5452L58.9973 39.9998L68.4519 49.4543L49.4546 68.4517L40 58.9971L30.5455 68.4517L11.5482 49.4543L21.0027 39.9998L11.5482 30.5452L30.5455 11.5479ZM14.6337 30.5452L24.0883 39.9998L14.6337 49.4543L30.5455 65.3661L40 55.9115L49.4546 65.3661L65.3663 49.4543L55.9118 39.9998L65.3663 30.5452L49.4546 14.6335L40 24.088L30.5455 14.6335L14.6337 30.5452ZM30.5455 23.1843L40 32.6388L49.4546 23.1843L56.8155 30.5452L47.361 39.9998L56.8155 49.4543L49.4546 56.8153L40 47.3607L30.5455 56.8153L23.1845 49.4543L32.6391 39.9998L23.1845 30.5452L30.5455 23.1843ZM26.2701 30.5452L35.7246 39.9998L26.2701 49.4543L30.5455 53.7297L40 44.2752L49.4546 53.7297L53.73 49.4543L44.2754 39.9998L53.73 30.5452L49.4546 26.2698L40 35.7244L30.5455 26.2698L26.2701 30.5452Z" fill="#23204B"/>
</g>
<g clip-path="url(#clip1)">
<path d="M79.2727 120L79.9999 119.273V120.727L79.2727 120Z" fill="black" fill-opacity="0.1"/>
<path d="M34.1817 120L24.7272 110.546L30.5454 104.727L39.9999 114.182L49.4545 104.727L55.2727 110.546L45.8181 120L55.2727 129.455L49.4545 135.273L39.9999 125.818L30.5454 135.273L24.7272 129.455L34.1817 120Z" fill="black" fill-opacity="0.1"/>
<path d="M3.6363 77.8184L13.0908 87.2729L7.27266 93.0911L-2.18188 83.6365V95.2729L7.27266 104.727L24.7272 87.2729L15.2727 77.8184H3.6363Z" fill="black" fill-opacity="0.1"/>
<path d="M76.3636 162.182L66.909 152.727L72.7272 146.909L82.1817 156.364V144.727L72.7272 135.273L55.2727 152.727L64.7272 162.182H76.3636Z" fill="black" fill-opacity="0.1"/>
<path d="M13.0908 152.727L3.6363 162.182H15.2727L24.7272 152.727L7.27266 135.273L-2.18188 144.727V156.364L7.27266 146.909L13.0908 152.727Z" fill="black" fill-opacity="0.1"/>
<path d="M72.7272 104.727L82.1817 95.2729V83.6365L72.7272 93.0911L66.909 87.2729L76.3636 77.8184H64.7272L55.2727 87.2729L72.7272 104.727Z" fill="black" fill-opacity="0.1"/>
<path fill-rule="evenodd" clip-rule="evenodd" d="M-3.27271 76.7271H83.2728V163.273H-3.27271V76.7271ZM29.5428 78.9089L40 89.3661L50.4572 78.9089H29.5428ZM53.5428 78.9089L40 92.4516L26.4572 78.9089H17.9064L26.2701 87.2725L7.27275 106.27L-1.09089 97.9062V106.457L12.4519 120L-1.09089 133.543V142.093L7.27275 133.73L26.2701 152.727L17.9064 161.091H26.4572L40 147.548L53.5428 161.091H62.0936L53.73 152.727L72.7273 133.73L81.0909 142.093V133.543L67.5482 120L81.0909 106.457V97.9062L72.7273 106.27L53.73 87.2725L62.0936 78.9089H53.5428ZM65.1792 78.9089L56.8155 87.2725L72.7273 103.184L81.0909 94.8206V86.2698L72.7273 94.6335L65.3663 87.2725L73.73 78.9089H65.1792ZM76.8155 78.9089L68.4519 87.2725L72.7273 91.5479L81.0909 83.1843V78.9089H76.8155ZM81.0909 109.543L70.6337 120L81.0909 130.457V123.361L77.73 120L81.0909 116.639V109.543ZM81.0909 145.179L72.7273 136.815L56.8155 152.727L65.1792 161.091H73.73L65.3663 152.727L72.7273 145.366L81.0909 153.73V145.179ZM81.0909 156.815L72.7273 148.452L68.4519 152.727L76.8155 161.091H81.0909V156.815ZM50.4572 161.091L40 150.633L29.5428 161.091H50.4572ZM14.8209 161.091L23.1845 152.727L7.27275 136.815L-1.09089 145.179V153.73L7.27275 145.366L14.6337 152.727L6.27007 161.091H14.8209ZM3.18452 161.091L11.5482 152.727L7.27275 148.452L-1.09089 156.815V161.091H3.18452ZM-1.09089 130.457L9.36633 120L-1.09089 109.543V116.639L2.27007 120L-1.09089 123.361V130.457ZM-1.09089 94.8206L7.27275 103.184L23.1845 87.2725L14.8209 78.9089H6.27007L14.6337 87.2725L7.27275 94.6335L-1.09089 86.2698V94.8206ZM-1.09089 83.1843L7.27275 91.5479L11.5482 87.2725L3.18452 78.9089H-1.09089V83.1843ZM30.5455 91.5479L40 101.002L49.4546 91.5479L68.4519 110.545L58.9973 120L68.4519 129.454L49.4546 148.452L40 138.997L30.5455 148.452L11.5482 129.454L21.0027 120L11.5482 110.545L30.5455 91.5479ZM14.6337 110.545L24.0883 120L14.6337 129.454L30.5455 145.366L40 135.912L49.4546 145.366L65.3663 129.454L55.9118 120L65.3663 110.545L49.4546 94.6335L40 104.088L30.5455 94.6335L14.6337 110.545ZM30.5455 103.184L40 112.639L49.4546 103.184L56.8155 110.545L47.361 120L56.8155 129.454L49.4546 136.815L40 127.361L30.5455 136.815L23.1845 129.454L32.6391 120L23.1845 110.545L30.5455 103.184ZM26.2701 110.545L35.7246 120L26.2701 129.454L30.5455 133.73L40 124.275L49.4546 133.73L53.73 129.454L44.2754 120L53.73 110.545L49.4546 106.27L40 115.724L30.5455 106.27L26.2701 110.545Z" fill="#23204B"/>
</g>
<g clip-path="url(#clip2)">
<path d="M159.273 40.0002L160 39.2729V40.7275L159.273 40.0002Z" fill="black" fill-opacity="0.1"/>
<path d="M114.182 40.0002L104.727 30.5456L110.545 24.7275L120 34.182L129.454 24.7275L135.273 30.5456L125.818 40.0002L135.273 49.4547L129.454 55.2729L120 45.8184L110.545 55.2729L104.727 49.4547L114.182 40.0002Z" fill="black" fill-opacity="0.1"/>
<path d="M83.6363 -2.18164L93.0908 7.27291L87.2727 13.0911L77.8181 3.63654V15.2729L87.2727 24.7275L104.727 7.27291L95.2727 -2.18164H83.6363Z" fill="black" fill-opacity="0.1"/>
<path d="M156.364 82.182L146.909 72.7275L152.727 66.9093L162.182 76.3638V64.7275L152.727 55.2729L135.273 72.7275L144.727 82.182H156.364Z" fill="black" fill-opacity="0.1"/>
<path d="M93.0908 72.7275L83.6363 82.182H95.2727L104.727 72.7275L87.2727 55.2729L77.8181 64.7275V76.3638L87.2727 66.9093L93.0908 72.7275Z" fill="black" fill-opacity="0.1"/>
<path d="M152.727 24.7275L162.182 15.2729V3.63654L152.727 13.0911L146.909 7.27291L156.364 -2.18164H144.727L135.273 7.27291L152.727 24.7275Z" fill="black" fill-opacity="0.1"/>
<path fill-rule="evenodd" clip-rule="evenodd" d="M76.7273 -3.27295H163.273V83.2725H76.7273V-3.27295ZM109.543 -1.09113L120 9.36609L130.457 -1.09113H109.543ZM133.543 -1.09113L120 12.4516L106.457 -1.09113H97.9064L106.27 7.27251L87.2727 26.2698L78.9091 17.9062V26.457L92.4519 39.9998L78.9091 53.5426V62.0934L87.2727 53.7297L106.27 72.7271L97.9064 81.0907H106.457L120 67.5479L133.543 81.0907H142.094L133.73 72.7271L152.727 53.7297L161.091 62.0934V53.5426L147.548 39.9998L161.091 26.457V17.9062L152.727 26.2698L133.73 7.27251L142.094 -1.09113H133.543ZM145.179 -1.09113L136.816 7.27251L152.727 23.1843L161.091 14.8206V6.26983L152.727 14.6335L145.366 7.27251L153.73 -1.09113H145.179ZM156.816 -1.09113L148.452 7.27251L152.727 11.5479L161.091 3.18427V-1.09113H156.816ZM161.091 29.5426L150.634 39.9998L161.091 50.457V43.3607L157.73 39.9998L161.091 36.6388V29.5426ZM161.091 65.1789L152.727 56.8153L136.816 72.7271L145.179 81.0907H153.73L145.366 72.7271L152.727 65.3661L161.091 73.7297V65.1789ZM161.091 76.8153L152.727 68.4517L148.452 72.7271L156.816 81.0907H161.091V76.8153ZM130.457 81.0907L120 70.6335L109.543 81.0907H130.457ZM94.8209 81.0907L103.185 72.7271L87.2727 56.8153L78.9091 65.1789V73.7297L87.2727 65.3661L94.6337 72.7271L86.2701 81.0907H94.8209ZM83.1845 81.0907L91.5482 72.7271L87.2727 68.4517L78.9091 76.8153V81.0907H83.1845ZM78.9091 50.457L89.3663 39.9998L78.9091 29.5426V36.6388L82.2701 39.9998L78.9091 43.3607V50.457ZM78.9091 14.8206L87.2727 23.1843L103.185 7.27251L94.8209 -1.09113H86.2701L94.6337 7.27251L87.2727 14.6335L78.9091 6.26983V14.8206ZM78.9091 3.18427L87.2727 11.5479L91.5482 7.27251L83.1845 -1.09113H78.9091V3.18427ZM110.545 11.5479L120 21.0025L129.455 11.5479L148.452 30.5452L138.997 39.9998L148.452 49.4543L129.455 68.4517L120 58.9971L110.545 68.4517L91.5482 49.4543L101.003 39.9998L91.5482 30.5452L110.545 11.5479ZM94.6337 30.5452L104.088 39.9998L94.6337 49.4543L110.545 65.3661L120 55.9115L129.455 65.3661L145.366 49.4543L135.912 39.9998L145.366 30.5452L129.455 14.6335L120 24.088L110.545 14.6335L94.6337 30.5452ZM110.545 23.1843L120 32.6388L129.455 23.1843L136.816 30.5452L127.361 39.9998L136.816 49.4543L129.455 56.8153L120 47.3607L110.545 56.8153L103.185 49.4543L112.639 39.9998L103.185 30.5452L110.545 23.1843ZM106.27 30.5452L115.725 39.9998L106.27 49.4543L110.545 53.7297L120 44.2752L129.455 53.7297L133.73 49.4543L124.275 39.9998L133.73 30.5452L129.455 26.2698L120 35.7244L110.545 26.2698L106.27 30.5452Z" fill="#23204B"/>
</g>
<g clip-path="url(#clip3)">
<path d="M159.273 120L160 119.273V120.727L159.273 120Z" fill="black" fill-opacity="0.1"/>
<path d="M114.182 120L104.727 110.546L110.545 104.727L120 114.182L129.454 104.727L135.273 110.546L125.818 120L135.273 129.455L129.454 135.273L120 125.818L110.545 135.273L104.727 129.455L114.182 120Z" fill="black" fill-opacity="0.1"/>
<path d="M83.6363 77.8184L93.0908 87.2729L87.2727 93.0911L77.8181 83.6365V95.2729L87.2727 104.727L104.727 87.2729L95.2727 77.8184H83.6363Z" fill="black" fill-opacity="0.1"/>
<path d="M156.364 162.182L146.909 152.727L152.727 146.909L162.182 156.364V144.727L152.727 135.273L135.273 152.727L144.727 162.182H156.364Z" fill="black" fill-opacity="0.1"/>
<path d="M93.0908 152.727L83.6363 162.182H95.2727L104.727 152.727L87.2727 135.273L77.8181 144.727V156.364L87.2727 146.909L93.0908 152.727Z" fill="black" fill-opacity="0.1"/>
<path d="M152.727 104.727L162.182 95.2729V83.6365L152.727 93.0911L146.909 87.2729L156.364 77.8184H144.727L135.273 87.2729L152.727 104.727Z" fill="black" fill-opacity="0.1"/>
<path fill-rule="evenodd" clip-rule="evenodd" d="M76.7273 76.7271H163.273V163.273H76.7273V76.7271ZM109.543 78.9089L120 89.3661L130.457 78.9089H109.543ZM133.543 78.9089L120 92.4516L106.457 78.9089H97.9064L106.27 87.2725L87.2727 106.27L78.9091 97.9062V106.457L92.4519 120L78.9091 133.543V142.093L87.2727 133.73L106.27 152.727L97.9064 161.091H106.457L120 147.548L133.543 161.091H142.094L133.73 152.727L152.727 133.73L161.091 142.093V133.543L147.548 120L161.091 106.457V97.9062L152.727 106.27L133.73 87.2725L142.094 78.9089H133.543ZM145.179 78.9089L136.816 87.2725L152.727 103.184L161.091 94.8206V86.2698L152.727 94.6335L145.366 87.2725L153.73 78.9089H145.179ZM156.816 78.9089L148.452 87.2725L152.727 91.5479L161.091 83.1843V78.9089H156.816ZM161.091 109.543L150.634 120L161.091 130.457V123.361L157.73 120L161.091 116.639V109.543ZM161.091 145.179L152.727 136.815L136.816 152.727L145.179 161.091H153.73L145.366 152.727L152.727 145.366L161.091 153.73V145.179ZM161.091 156.815L152.727 148.452L148.452 152.727L156.816 161.091H161.091V156.815ZM130.457 161.091L120 150.633L109.543 161.091H130.457ZM94.8209 161.091L103.185 152.727L87.2727 136.815L78.9091 145.179V153.73L87.2727 145.366L94.6337 152.727L86.2701 161.091H94.8209ZM83.1845 161.091L91.5482 152.727L87.2727 148.452L78.9091 156.815V161.091H83.1845ZM78.9091 130.457L89.3663 120L78.9091 109.543V116.639L82.2701 120L78.9091 123.361V130.457ZM78.9091 94.8206L87.2727 103.184L103.185 87.2725L94.8209 78.9089H86.2701L94.6337 87.2725L87.2727 94.6335L78.9091 86.2698V94.8206ZM78.9091 83.1843L87.2727 91.5479L91.5482 87.2725L83.1845 78.9089H78.9091V83.1843ZM110.545 91.5479L120 101.002L129.455 91.5479L148.452 110.545L138.997 120L148.452 129.454L129.455 148.452L120 138.997L110.545 148.452L91.5482 129.454L101.003 120L91.5482 110.545L110.545 91.5479ZM94.6337 110.545L104.088 120L94.6337 129.454L110.545 145.366L120 135.912L129.455 145.366L145.366 129.454L135.912 120L145.366 110.545L129.455 94.6335L120 104.088L110.545 94.6335L94.6337 110.545ZM110.545 103.184L120 112.639L129.455 103.184L136.816 110.545L127.361 120L136.816 129.454L129.455 136.815L120 127.361L110.545 136.815L103.185 129.454L112.639 120L103.185 110.545L110.545 103.184ZM106.27 110.545L115.725 120L106.27 129.454L110.545 133.73L120 124.275L129.455 133.73L133.73 129.454L124.275 120L133.73 110.545L129.455 106.27L120 115.724L110.545 106.27L106.27 110.545Z" fill="#23204B"/>
</g>
</g>
<defs>
<clipPath id="clip0">
<rect width="80" height="80" fill="white"/>
</clipPath>
<clipPath id="clip1">
<rect width="80" height="80" fill="white" transform="translate(0 80)"/>
</clipPath>
<clipPath id="clip2">
<rect width="80" height="80" fill="white" transform="translate(80)"/>
</clipPath>
<clipPath id="clip3">
<rect width="80" height="80" fill="white" transform="translate(80 80)"/>
</clipPath>
</defs>
</svg>
