<svg width="30" height="30" viewBox="0 0 30 30" fill="none" xmlns="http://www.w3.org/2000/svg">
<path fill-rule="evenodd" clip-rule="evenodd" d="M0 0H30V30H0V0ZM2.8125 2.8125V4.57376L7.5 9.26126L9.26126 7.5L4.57376 2.8125H2.8125ZM8.55124 2.8125L13.2387 7.5L7.5 13.2387L2.8125 8.55124V12.0738L7.5 16.7613L16.7613 7.5L12.0738 2.8125H8.55124ZM16.0512 2.8125L20.7387 7.5L7.5 20.7387L2.8125 16.0512V19.5738L10.4262 27.1875H13.9488L9.26126 22.5L22.5 9.26126L27.1875 13.9488V10.4262L19.5738 2.8125H16.0512ZM23.5512 2.8125L27.1875 6.44876V2.8125H23.5512ZM27.1875 17.9262L22.5 13.2387L13.2387 22.5L17.9262 27.1875H21.4488L16.7613 22.5L22.5 16.7613L27.1875 21.4488V17.9262ZM27.1875 25.4262L22.5 20.7387L20.7387 22.5L25.4262 27.1875H27.1875V25.4262ZM6.44876 27.1875L2.8125 23.5512V27.1875H6.44876Z" fill="#BD0827"/>
</svg>
