<svg width="45" height="45" viewBox="0 0 45 45" fill="none" xmlns="http://www.w3.org/2000/svg">
<path fill-rule="evenodd" clip-rule="evenodd" d="M0 0H45V45H0V0ZM4.21875 4.21875V6.86064L11.25 13.8919L13.8919 11.25L6.86064 4.21875H4.21875ZM12.8269 4.21875L19.8581 11.25L11.25 19.8581L4.21875 12.8269V18.1106L11.25 25.1419L25.1419 11.25L18.1106 4.21875H12.8269ZM24.0769 4.21875L31.1081 11.25L11.25 31.1081L4.21875 24.0769V29.3606L15.6394 40.7812H20.9231L13.8919 33.75L33.75 13.8919L40.7812 20.9231V15.6394L29.3606 4.21875H24.0769ZM35.3269 4.21875L40.7812 9.67314V4.21875H35.3269ZM40.7812 26.8894L33.75 19.8581L19.8581 33.75L26.8894 40.7812H32.1731L25.1419 33.75L33.75 25.1419L40.7812 32.1731V26.8894ZM40.7812 38.1394L33.75 31.1081L31.1081 33.75L38.1394 40.7812H40.7812V38.1394ZM9.67314 40.7812L4.21875 35.3269V40.7812H9.67314Z" fill="#BD0827"/>
</svg>
