<svg width="100%" height="100%" xmlns="http://www.w3.org/2000/svg">

<defs>
    <pattern id="pattern-3" viewBox="0 0 80 80" width="9%" height="9%" patternTransform="rotate(-60)">
    <path fill-rule="evenodd" clip-rule="evenodd" d="M22.5456 -7.63623C21.9431 -7.63623 21.4547 -7.14781 21.4547 -6.54532V0.000133514C21.4547 0.0792356 21.4322 0.149488 21.3979 0.201767C21.3677 0.247691 21.3187 0.29586 21.2264 0.330513L21.224 0.33143L6.90127 5.51988L6.89425 5.52248C6.20036 5.77924 5.65325 6.32634 5.39648 7.02025L5.39206 7.03242L0.329793 21.2284C0.295197 21.3194 0.247383 21.3679 0.201778 21.3979C0.149495 21.4322 0.0792379 21.4547 0.00012207 21.4547H-7.27262C-7.87511 21.4547 -8.36353 21.9431 -8.36353 22.5456L-8.36353 57.4547C-8.36353 58.0572 -7.87511 58.5456 -7.27262 58.5456H0.00011158C0.0792398 58.5456 0.149497 58.5681 0.201779 58.6024C0.247375 58.6323 0.295183 58.6809 0.329779 58.7718L0.331441 58.7763L5.39206 72.9678L5.39648 72.98C5.65325 73.6739 6.20036 74.221 6.89425 74.4778L6.90128 74.4804L21.224 79.6688L21.2268 79.6699C21.3188 79.7045 21.3677 79.7526 21.3979 79.7985C21.4322 79.8508 21.4547 79.921 21.4547 80.0001V86.5456C21.4547 87.1481 21.9431 87.6365 22.5456 87.6365L57.4547 87.6365C58.0572 87.6365 58.5456 87.1481 58.5456 86.5456V80.0002C58.5456 79.921 58.5681 79.8508 58.6024 79.7985C58.6325 79.7526 58.6815 79.7045 58.7735 79.6699L58.7762 79.6688L73.0989 74.4804L73.106 74.4778C73.7999 74.221 74.347 73.6739 74.6037 72.98L74.6082 72.9678L79.6688 58.7763L79.6705 58.7717C79.7051 58.6808 79.7529 58.6323 79.7984 58.6024C79.8507 58.5681 79.921 58.5456 80.0001 58.5456H87.2728C87.8753 58.5456 88.3637 58.0572 88.3637 57.4547L88.3637 22.5456C88.3637 21.9431 87.8753 21.4547 87.2728 21.4547H80.0001C79.921 21.4547 79.8507 21.4322 79.7984 21.3979C79.7529 21.368 79.7051 21.3194 79.6705 21.2285L79.6688 21.224L74.6082 7.03242L74.6037 7.02025C74.347 6.32634 73.7999 5.77924 73.106 5.52245L58.7762 0.331431L58.7738 0.330503C58.6815 0.295852 58.6325 0.247689 58.6024 0.201767C58.5681 0.149485 58.5456 0.0792289 58.5456 0.000133514V-6.54532C58.5456 -7.14781 58.0572 -7.63623 57.4547 -7.63623L22.5456 -7.63623ZM23.6365 0.000133514V-5.45441L56.3637 -5.45441V0.000133514C56.3638 0.968201 56.9178 1.97015 58.0191 2.37765L58.0261 2.38022L72.3488 7.5687L72.3512 7.56959C72.4454 7.60523 72.5199 7.67938 72.556 7.77335L72.5575 7.77742L77.6181 21.969L77.6226 21.9812C78.0301 23.0824 79.0321 23.6365 80.0001 23.6365H86.1819V56.3638H80.0001C79.0321 56.3638 78.0301 56.9178 77.6226 58.0191L77.6181 58.0313L72.5575 72.2229L72.556 72.227C72.5199 72.3209 72.4454 72.395 72.3513 72.4306L72.3488 72.4316L58.0261 77.62L58.0191 77.6226C56.9178 78.0301 56.3638 79.0321 56.3637 80.0001V85.4547L23.6365 85.4547V80.0001C23.6365 79.0321 23.0824 78.0301 21.9812 77.6226L7.65142 72.4316L7.64894 72.4306C7.55477 72.395 7.4803 72.3208 7.44423 72.2269L7.44271 72.2229L2.38208 58.0313L2.37767 58.0191C1.97016 56.9178 0.96816 56.3638 0.00011158 56.3638H-6.18171L-6.18171 23.6365H0.000100136C0.968163 23.6365 1.97016 23.0824 2.37767 21.9812L2.38208 21.969L7.44422 7.7734C7.4803 7.67941 7.55481 7.60524 7.64903 7.56959L7.65142 7.5687L21.9741 2.38025L21.9812 2.37765C23.0824 1.97016 23.6365 0.968202 23.6365 0.000133514ZM39.8635 3.41449C39.9511 3.37896 40.0491 3.37896 40.1367 3.41449L65.929 13.8708C66.0202 13.9078 66.0925 13.9801 66.1294 14.0712L76.5858 39.8635C76.6213 39.9511 76.6213 40.0491 76.5858 40.1367L66.1294 65.9291C66.0925 66.0202 66.0202 66.0925 65.929 66.1294L40.1367 76.5858C40.0491 76.6213 39.9511 76.6213 39.8635 76.5858L14.0712 66.1294C13.98 66.0925 13.9078 66.0202 13.8708 65.9291L3.41446 40.1368C3.37894 40.0491 3.37894 39.9511 3.41446 39.8635L13.8708 14.0712C13.9078 13.9801 13.98 13.9078 14.0712 13.8708L39.8635 3.41449ZM40.9565 1.39251C40.3431 1.14387 39.6571 1.14387 39.0438 1.39251L13.2515 11.8489C12.6135 12.1075 12.1075 12.6135 11.8488 13.2515L1.39249 39.0438C1.14384 39.6571 1.14384 40.3432 1.39249 40.9565L11.8488 66.7488C12.1075 67.3868 12.6135 67.8928 13.2515 68.1514L39.0438 78.6078C39.6571 78.8564 40.3431 78.8564 40.9565 78.6078L66.7488 68.1514C67.3867 67.8928 67.8928 67.3868 68.1514 66.7488L78.6077 40.9565C78.8564 40.3432 78.8564 39.6571 78.6077 39.0438L68.1514 13.2515C67.8928 12.6135 67.3867 12.1075 66.7488 11.8489L40.9565 1.39251ZM40 11.6363L40.7714 10.8649C40.3476 10.4412 39.6614 10.4386 39.2344 10.8591L39.2282 10.8652L39.213 10.8803L39.1563 10.9369C39.1073 10.986 39.036 11.0579 38.9452 11.1506C38.7635 11.336 38.5035 11.605 38.1863 11.9431C37.5524 12.6188 36.6872 13.5736 35.7612 14.6911C34.1253 16.6654 32.2275 19.2321 31.1243 21.7001C29.0156 21.3124 26.8862 21.1157 25.2259 21.0153C24.2747 20.9577 23.4704 20.9314 22.9025 20.9195C22.6184 20.9135 22.3932 20.9111 22.2379 20.9102C22.1602 20.9098 22.1 20.9097 22.0587 20.9098L22.011 20.9099L21.9981 20.91L21.9945 20.91L21.9933 20.91C21.3941 20.9145 20.91 21.4016 20.91 22.0009L20.91 22.0063L20.91 22.0191L20.9102 22.0666C20.9105 22.1078 20.911 22.1679 20.912 22.2455C20.9139 22.4005 20.9178 22.6255 20.9256 22.9092C20.9411 23.4765 20.9721 24.2798 21.034 25.2296C21.1419 26.8865 21.3451 29.0101 21.7305 31.1108C19.258 32.2098 16.6842 34.1107 14.7043 35.7502C13.5833 36.6785 12.6253 37.5465 11.9471 38.1825C11.6078 38.5009 11.3378 38.7618 11.1517 38.9441C11.0586 39.0352 10.9865 39.1068 10.9372 39.1561L10.8804 39.2129L10.8653 39.2282L10.8611 39.2325L10.8598 39.2337C10.8597 39.2339 10.8591 39.2344 11.6363 40L10.8591 39.2344C10.4386 39.6614 10.4412 40.3476 10.8649 40.7714L10.8668 40.7733L10.871 40.7774L10.8862 40.7925L10.9431 40.8487C10.9927 40.8975 11.0651 40.9683 11.1585 41.0586C11.3452 41.2391 11.6162 41.4976 11.9566 41.8132C12.6368 42.4438 13.5968 43.3047 14.7176 44.227C16.6973 45.856 19.262 47.7469 21.7039 48.8551C21.3141 50.968 21.1165 53.1033 21.0156 54.768C20.9579 55.7208 20.9315 56.5266 20.9195 57.0956C20.9135 57.3802 20.9111 57.6059 20.9102 57.7616L20.9098 57.8694L20.9098 57.9411L20.9099 57.9889L20.91 58.0018L20.91 58.0055L20.91 58.0066C20.9145 58.6059 21.4016 59.0899 22.0009 59.0899H22.0026L22.0191 59.0899L22.0666 59.0897C22.1078 59.0894 22.1679 59.0889 22.2455 59.088C22.4005 59.086 22.6255 59.0821 22.9092 59.0743C23.4765 59.0588 24.2798 59.0278 25.2296 58.966C26.8865 58.858 29.0101 58.6548 31.1108 58.2695C32.2098 60.7419 34.1107 63.3157 35.7502 65.2956C36.6785 66.4166 37.5465 67.3747 38.1825 68.0528C38.5008 68.3922 38.7618 68.6622 38.9441 68.8482C39.0352 68.9413 39.1068 69.0134 39.156 69.0628L39.2129 69.1195L39.2282 69.1347L39.2337 69.1401C39.2339 69.1403 39.2344 69.1408 40 68.3636L39.2344 69.1408C39.6614 69.5613 40.3476 69.5587 40.7714 69.135L40.772 69.1343L40.7774 69.1289L40.7926 69.1136L40.849 69.0565C40.8979 69.0068 40.969 68.9341 41.0596 68.8403C41.2408 68.6529 41.5003 68.3809 41.817 68.0393C42.4497 67.3566 43.3134 66.3932 44.238 65.2689C45.8707 63.2835 47.7648 60.7118 48.8688 58.2657C50.9736 58.653 53.103 58.8572 54.7644 58.9656C55.7157 59.0276 56.5206 59.0587 57.0889 59.0743C57.3732 59.0821 57.5986 59.086 57.754 59.0879C57.8317 59.0889 57.8919 59.0894 57.9332 59.0897L57.9808 59.0899L57.9936 59.0899H57.9984C58.5977 59.0899 59.0854 58.6065 59.0899 58.0073L59.0899 58.0055L59.09 57.9889L59.0901 57.9411C59.0902 57.8997 59.0901 57.8394 59.0897 57.7615C59.0888 57.6059 59.0864 57.3802 59.0804 57.0956C59.0684 56.5266 59.042 55.7208 58.9843 54.768C58.8834 53.1033 58.6858 50.968 58.296 48.8551C60.7379 47.7469 63.3026 45.856 65.2823 44.227C66.4031 43.3047 67.3632 42.4438 68.0433 41.8132C68.3837 41.4976 68.6547 41.2391 68.8415 41.0586C68.9349 40.9683 69.0073 40.8975 69.0568 40.8487L69.1137 40.7925L69.1289 40.7774L69.1331 40.7733L69.1343 40.772C69.1345 40.7719 69.135 40.7714 68.3636 40L69.135 40.7714C69.5587 40.3476 69.5613 39.6614 69.1408 39.2344L69.1347 39.2282L69.1195 39.2129L69.0628 39.1561C69.0134 39.1068 68.9413 39.0352 68.8482 38.9441C68.6622 38.7618 68.3922 38.5009 68.0528 38.1825C67.3747 37.5465 66.4166 36.6785 65.2956 35.7502C63.3157 34.1107 60.7419 32.2098 58.2695 31.1108C58.6548 29.0101 58.858 26.8866 58.966 25.2296C59.0278 24.2798 59.0588 23.4765 59.0743 22.9092C59.0821 22.6255 59.086 22.4005 59.0879 22.2455C59.0885 22.1983 59.089 22.1577 59.0892 22.1238C59.0894 22.1019 59.0896 22.0828 59.0897 22.0666L59.0899 22.0191L59.0899 22.0026V22.0015C59.0899 21.4022 58.6065 20.9145 58.0073 20.91L58.0055 20.91L58.0018 20.91L57.9889 20.9099L57.9411 20.9098C57.8997 20.9097 57.8394 20.9098 57.7615 20.9102C57.6059 20.9111 57.3802 20.9135 57.0956 20.9195C56.5266 20.9315 55.7208 20.9579 54.768 21.0156C53.1033 21.1165 50.968 21.3141 48.8551 21.7039C47.7469 19.262 45.856 16.6973 44.227 14.7176C43.3047 13.5968 42.4438 12.6368 41.8132 11.9566C41.4976 11.6162 41.2391 11.3452 41.0586 11.1585C40.9683 11.0651 40.8975 10.9927 40.8487 10.9431L40.7925 10.8862L40.7774 10.871L40.7732 10.8668L40.772 10.8656C40.7719 10.8654 40.7714 10.8649 40 11.6363ZM57.999 22.0009L59.0899 22.0015C59.0899 22.0014 59.0899 22.0009 57.999 22.0009ZM57.999 57.999L57.9984 59.0899C57.9985 59.0899 57.999 59.0899 57.999 57.999ZM22.0009 57.999L20.91 58.0066C20.91 58.0067 20.91 58.0073 22.0009 57.999ZM22.0009 22.0009L21.9933 20.91C21.9932 20.91 21.9927 20.91 22.0009 22.0009ZM42.5422 16.1039C44.0541 17.9413 45.6696 20.1472 46.6705 22.1864C44.5822 22.7346 42.5595 23.5554 41.2856 24.8293C41.2188 24.8961 41.1539 24.9642 41.0909 25.0337L41.0909 14.4075C41.5343 14.9068 42.0287 15.4799 42.5422 16.1039ZM38.909 14.3825L38.909 25.0337C38.846 24.9642 38.7811 24.8961 38.7143 24.8293C37.436 23.551 35.4034 22.7288 33.3068 22.1804C34.3017 20.1244 35.922 17.9166 37.4412 16.0832C37.9608 15.4562 38.461 14.8817 38.909 14.3825ZM25.0942 23.1931C26.6179 23.2853 28.5153 23.4595 30.3943 23.786C30.2598 24.3464 30.1818 24.9064 30.1818 25.4545C30.1818 28.2442 32.1924 30.7738 34.1106 32.5928C35.7084 34.108 37.4336 35.3075 38.4761 35.9794C38.3662 36.6728 38.2465 37.275 38.1461 37.7352C38.1193 37.8576 38.094 37.9697 38.0707 38.0706C37.9697 38.094 37.8576 38.1193 37.7352 38.146C37.275 38.2465 36.6728 38.3662 35.9794 38.4761C35.3075 37.4336 34.108 35.7084 32.5928 34.1106C30.7738 32.1924 28.2442 30.1818 25.4545 30.1818C24.9166 30.1818 24.3672 30.2569 23.8175 30.3868C23.491 28.5091 23.3104 26.6117 23.2112 25.0878C23.1602 24.306 23.131 23.6275 23.1143 23.1069C23.6345 23.1205 24.3127 23.1458 25.0942 23.1931ZM35.6119 31.0097C36.6881 32.0302 37.8376 32.9023 38.7572 33.5419C38.8306 32.4751 38.8362 31.3587 38.7162 30.2991C38.5258 28.6173 38.0372 27.2377 37.1716 26.3721C36.2588 25.4593 34.5828 24.7504 32.5308 24.2342C32.4196 24.68 32.3636 25.0881 32.3636 25.4545C32.3636 27.2652 33.74 29.2345 35.6119 31.0097ZM41.8539 42.2647C41.8806 42.1424 41.9059 42.0302 41.9293 41.9293C42.0302 41.9059 42.1424 41.8806 42.2647 41.8539C42.7249 41.7534 43.3271 41.6337 44.0205 41.5238C44.6924 42.5663 45.8919 44.2915 47.4071 45.8893C49.2261 47.8075 51.7557 49.8181 54.5454 49.8181C55.0916 49.8181 55.6516 49.7374 56.2128 49.599C56.5396 51.4777 56.7141 53.3753 56.8064 54.8999C56.8539 55.6839 56.8794 56.3641 56.893 56.8857C56.3711 56.8689 55.6906 56.8395 54.9064 56.7884C53.3817 56.6889 51.484 56.5081 49.6067 56.1813C49.7404 55.6308 49.8181 55.0815 49.8181 54.5454C49.8181 51.7557 47.8075 49.2261 45.8893 47.4071C44.2915 45.8919 42.5663 44.6924 41.5238 44.0205C41.6337 43.3271 41.7534 42.7249 41.8539 42.2647ZM48.9903 44.388C47.9697 43.3118 47.0976 42.1623 46.4581 41.2427C47.5248 41.1693 48.6412 41.1637 49.7008 41.2837C51.3826 41.4741 52.7622 41.9627 53.6278 42.8284C54.5394 43.7399 55.2479 45.4129 55.764 47.4621C55.3142 47.5782 54.9066 47.6363 54.5454 47.6363C52.7347 47.6363 50.7654 46.2599 48.9903 44.388ZM63.896 42.5422C62.0587 44.0541 59.8527 45.6696 57.8136 46.6705C57.2653 44.5822 56.4445 42.5595 55.1706 41.2856C55.1038 41.2188 55.0357 41.1539 54.9662 41.0909H65.5925C65.0931 41.5343 64.5201 42.0287 63.896 42.5422ZM65.6174 38.9091H54.9662C55.0357 38.846 55.1038 38.7811 55.1706 38.7143C55.9512 37.9337 56.5424 36.8757 57.0013 35.7414C57.3107 34.9768 57.5717 34.1478 57.7926 33.2938C59.851 34.285 62.0645 35.9074 63.904 37.4307C64.536 37.954 65.1148 38.458 65.6174 38.9091ZM56.7888 25.0878C56.6895 26.6117 56.5089 28.5091 56.1825 30.3868C55.6327 30.2569 55.0833 30.1818 54.5454 30.1818C51.7557 30.1818 49.2261 32.1924 47.4071 34.1106C45.8919 35.7084 44.6924 37.4336 44.0205 38.4761C43.3271 38.3662 42.7249 38.2465 42.2647 38.146C42.1424 38.1193 42.0302 38.094 41.9293 38.0706C41.9059 37.9697 41.8806 37.8576 41.8539 37.7352C41.7534 37.275 41.6337 36.6728 41.5238 35.9794C42.5663 35.3075 44.2915 34.108 45.8893 32.5928C47.8075 30.7738 49.8181 28.2442 49.8181 25.4545C49.8181 24.9083 49.7374 24.3483 49.599 23.7871C51.4777 23.4604 53.3753 23.2858 54.8999 23.1935C55.6839 23.146 56.3641 23.1205 56.8857 23.1069C56.8689 23.6275 56.8397 24.306 56.7888 25.0878ZM48.9903 35.6119C47.9697 36.6881 47.0976 37.8376 46.4581 38.7572C47.5248 38.8306 48.6412 38.8362 49.7008 38.7162C51.3826 38.5258 52.7622 38.0372 53.6278 37.1715C54.1193 36.68 54.5754 35.9201 54.9788 34.9231C55.2711 34.2007 55.5222 33.3878 55.737 32.5237C55.3023 32.4172 54.9039 32.3636 54.5454 32.3636C52.7347 32.3636 50.7654 33.74 48.9903 35.6119ZM44.388 31.0097C43.3118 32.0302 42.1623 32.9023 41.2427 33.5419C41.1693 32.4751 41.1637 31.3587 41.2837 30.2991C41.4741 28.6173 41.9627 27.2377 42.8284 26.3721C43.7399 25.4605 45.4129 24.7521 47.462 24.236C47.5782 24.6857 47.6363 25.0933 47.6363 25.4545C47.6363 27.2652 46.2599 29.2345 44.388 31.0097ZM47.6363 54.5454C47.6363 54.8988 47.5807 55.2967 47.4694 55.7353C46.6056 55.5203 45.793 55.269 45.0712 54.9765C44.0769 54.5737 43.3189 54.1183 42.8284 53.6278C41.9628 52.7622 41.4741 51.3826 41.2837 49.7008C41.1637 48.6412 41.1693 47.5248 41.2427 46.4581C42.1623 47.0976 43.3118 47.9697 44.388 48.9903C46.2599 50.7654 47.6363 52.7347 47.6363 54.5454ZM38.146 42.2647C38.2465 42.7249 38.3662 43.3271 38.4761 44.0205C37.4336 44.6924 35.7084 45.8919 34.1106 47.4071C32.1924 49.2261 30.1818 51.7557 30.1818 54.5454C30.1818 55.0833 30.2569 55.6327 30.3868 56.1825C28.5091 56.5089 26.6117 56.6895 25.0878 56.7888C24.306 56.8397 23.6275 56.8689 23.1069 56.8857C23.1205 56.3641 23.146 55.6839 23.1935 54.8999C23.2858 53.3753 23.4604 51.4777 23.7871 49.599C24.3483 49.7374 24.9083 49.8181 25.4545 49.8181C28.2442 49.8181 30.7738 47.8075 32.5928 45.8893C34.108 44.2915 35.3075 42.5663 35.9794 41.5238C36.6728 41.6337 37.275 41.7534 37.7352 41.8539C37.8576 41.8806 37.9697 41.9059 38.0706 41.9293C38.094 42.0302 38.1193 42.1424 38.146 42.2647ZM37.4307 63.904C35.9074 62.0645 34.285 59.851 33.2938 57.7926C34.1478 57.5717 34.9768 57.3107 35.7414 57.0013C36.8757 56.5424 37.9337 55.9512 38.7143 55.1706C38.7811 55.1038 38.846 55.0357 38.909 54.9662V65.6174C38.458 65.1148 37.954 64.536 37.4307 63.904ZM41.0909 65.5925V54.9662C41.1539 55.0357 41.2188 55.1038 41.2856 55.1706C42.0648 55.9497 43.1202 56.5402 44.2519 56.9987C45.0116 57.3065 45.8351 57.5665 46.6836 57.7868C45.6864 59.828 44.0688 62.0397 42.5528 63.8831C42.0355 64.5122 41.5373 65.0897 41.0909 65.5925ZM38.7162 49.7008C38.8362 48.6412 38.8306 47.5248 38.7572 46.4581C37.8376 47.0976 36.6881 47.9697 35.6119 48.9903C33.74 50.7654 32.3636 52.7347 32.3636 54.5454C32.3636 54.9039 32.4172 55.3023 32.5237 55.737C33.3878 55.5222 34.2007 55.2711 34.9231 54.9788C35.9201 54.5754 36.68 54.1193 37.1715 53.6278C38.0372 52.7622 38.5258 51.3826 38.7162 49.7008ZM25.4545 47.6363C25.0933 47.6363 24.6857 47.5782 24.236 47.4621C24.7521 45.4129 25.4605 43.7399 26.3721 42.8284C27.2377 41.9627 28.6173 41.4741 30.2991 41.2837C31.3587 41.1637 32.4751 41.1693 33.5419 41.2427C32.9023 42.1623 32.0302 43.3118 31.0097 44.388C29.2345 46.2599 27.2652 47.6363 25.4545 47.6363ZM31.0096 35.6119C32.0302 36.6881 32.9023 37.8376 33.5418 38.7572C32.4751 38.8306 31.3587 38.8362 30.2991 38.7162C28.6173 38.5258 27.2377 38.0372 26.3721 37.1715C25.8806 36.68 25.4245 35.9201 25.0211 34.9231C24.7288 34.2007 24.4777 33.3878 24.2629 32.5237C24.6976 32.4172 25.096 32.3636 25.4545 32.3636C27.2652 32.3636 29.2345 33.74 31.0096 35.6119ZM16.0959 37.4307C17.9354 35.9074 20.1489 34.285 22.2073 33.2938C22.4282 34.1478 22.6892 34.9768 22.9986 35.7414C23.4575 36.8757 24.0487 37.9337 24.8293 38.7143C24.8961 38.7811 24.9642 38.846 25.0337 38.9091L14.3825 38.9091C14.8851 38.458 15.464 37.954 16.0959 37.4307ZM14.4075 41.0909L25.0337 41.0909C24.9642 41.1539 24.8961 41.2188 24.8293 41.2856C23.5554 42.5595 22.7346 44.5822 22.1864 46.6705C20.1472 45.6696 17.9413 44.0541 16.1039 42.5422C15.4799 42.0287 14.9068 41.5343 14.4075 41.0909ZM40 40.6648C39.8902 40.3543 39.6457 40.1097 39.3352 40C39.6457 39.8902 39.8902 39.6457 40 39.3352C40.1097 39.6457 40.3543 39.8902 40.6648 40C40.3542 40.1097 40.1097 40.3543 40 40.6648ZM26.2546 12.9453C26.7366 12.5838 27.4203 12.6815 27.7818 13.1635L29.9637 16.0726C30.3251 16.5546 30.2275 17.2383 29.7455 17.5998C29.2635 17.9613 28.5797 17.8637 28.2182 17.3817L26.0364 14.4726C25.6749 13.9906 25.7726 13.3068 26.2546 12.9453ZM53.7455 12.9453C54.2275 13.3068 54.3251 13.9906 53.9636 14.4726L51.7818 17.3817C51.4203 17.8637 50.7366 17.9613 50.2546 17.5998C49.7726 17.2383 49.6749 16.5546 50.0364 16.0726L52.2182 13.1635C52.5797 12.6815 53.2635 12.5838 53.7455 12.9453ZM12.8425 26.4211C13.1119 25.8822 13.7672 25.6638 14.3061 25.9332L17.2152 27.3877C17.754 27.6572 17.9725 28.3125 17.703 28.8513C17.4336 29.3902 16.7783 29.6087 16.2394 29.3392L13.3303 27.8847C12.7914 27.6152 12.573 26.9599 12.8425 26.4211ZM67.1576 26.4211C67.427 26.9599 67.2086 27.6152 66.6697 27.8847L63.7606 29.3392C63.2217 29.6087 62.5664 29.3902 62.297 28.8513C62.0276 28.3125 62.246 27.6572 62.7849 27.3877L65.694 25.9332C66.2328 25.6638 66.8881 25.8822 67.1576 26.4211ZM17.703 51.1483C17.9725 51.6872 17.754 52.3425 17.2152 52.6119L14.3061 54.0665C13.7672 54.3359 13.1119 54.1175 12.8425 53.5786C12.573 53.0397 12.7914 52.3845 13.3303 52.115L16.2394 50.6605C16.7783 50.391 17.4336 50.6095 17.703 51.1483ZM62.297 51.1483C62.5664 50.6095 63.2217 50.391 63.7606 50.6605L66.6697 52.115C67.2086 52.3845 67.427 53.0397 67.1576 53.5786C66.8881 54.1175 66.2328 54.3359 65.694 54.0665L62.7849 52.6119C62.246 52.3425 62.0276 51.6872 62.297 51.1483ZM29.7455 62.3998C30.2275 62.7613 30.3251 63.4451 29.9637 63.9271L27.7818 66.8362C27.4203 67.3182 26.7366 67.4159 26.2546 67.0544C25.7726 66.6929 25.6749 66.0091 26.0364 65.5271L28.2182 62.618C28.5797 62.136 29.2635 62.0383 29.7455 62.3998ZM50.2546 62.3998C50.7366 62.0383 51.4203 62.136 51.7818 62.618L53.9636 65.5271C54.3251 66.0091 54.2275 66.6929 53.7455 67.0544C53.2635 67.4159 52.5797 67.3182 52.2182 66.8362L50.0364 63.9271C49.6749 63.4451 49.7726 62.7613 50.2546 62.3998ZM-3.27277 -4.48227e-05C-3.27277 -1.80752 -1.80752 -3.27277 -4.48227e-05 -3.27277C1.80743 -3.27277 3.27268 -1.80752 3.27268 -4.48227e-05C3.27268 1.80743 1.80743 3.27268 -4.48227e-05 3.27268C-1.80752 3.27268 -3.27277 1.80743 -3.27277 -4.48227e-05ZM-4.48227e-05 -5.45459C-3.01251 -5.45459 -5.45459 -3.01251 -5.45459 -4.48227e-05C-5.45459 3.01242 -3.01251 5.4545 -4.48227e-05 5.4545C3.01242 5.4545 5.4545 3.01242 5.4545 -4.48227e-05C5.4545 -3.01251 3.01242 -5.45459 -4.48227e-05 -5.45459ZM76.7272 -4.48227e-05C76.7272 -1.80752 78.1925 -3.27277 79.9999 -3.27277C81.8074 -3.27277 83.2727 -1.80752 83.2727 -4.48227e-05C83.2727 1.80743 81.8074 3.27268 79.9999 3.27268C78.1925 3.27268 76.7272 1.80743 76.7272 -4.48227e-05ZM79.9999 -5.45459C76.9875 -5.45459 74.5454 -3.01251 74.5454 -4.48227e-05C74.5454 3.01242 76.9875 5.4545 79.9999 5.4545C83.0124 5.4545 85.4545 3.01242 85.4545 -4.48227e-05C85.4545 -3.01251 83.0124 -5.45459 79.9999 -5.45459ZM-3.27277 80C-3.27277 78.1925 -1.80752 76.7272 -4.48227e-05 76.7272C1.80743 76.7272 3.27268 78.1925 3.27268 80C3.27268 81.8074 1.80743 83.2727 -4.48227e-05 83.2727C-1.80752 83.2727 -3.27277 81.8074 -3.27277 80ZM-4.48227e-05 74.5454C-3.01251 74.5454 -5.45459 76.9875 -5.45459 80C-5.45459 83.0124 -3.01251 85.4545 -4.48227e-05 85.4545C3.01242 85.4545 5.4545 83.0124 5.4545 80C5.4545 76.9875 3.01242 74.5454 -4.48227e-05 74.5454ZM76.7272 80C76.7272 78.1925 78.1925 76.7272 79.9999 76.7272C81.8074 76.7272 83.2727 78.1925 83.2727 80C83.2727 81.8074 81.8074 83.2727 79.9999 83.2727C78.1925 83.2727 76.7272 81.8074 76.7272 80ZM79.9999 74.5454C76.9875 74.5454 74.5454 76.9875 74.5454 80C74.5454 83.0124 76.9875 85.4545 79.9999 85.4545C83.0124 85.4545 85.4545 83.0124 85.4545 80C85.4545 76.9875 83.0124 74.5454 79.9999 74.5454Z" fill="#23204B"/>
    </pattern>

    
    <pattern id="fill" viewBox="0 0 80 80" width="9%" height="9%" patternTransform="rotate(-60)">
    <path fill-rule="evenodd" clip-rule="evenodd" d="M1.35447 21.6025L6.41951 7.39874C6.56578 7.00344 6.87746 6.69177 7.27275 6.5455L21.6025 1.35445C22.2311 1.12183 22.5455 0.560937 22.5455 4.33922e-05V-6.54541L57.4546 -6.54541V4.33922e-05C57.4546 0.560937 57.7689 1.12183 58.3976 1.35445L72.7273 6.5455C73.1226 6.69177 73.4343 7.00344 73.5806 7.39874L78.6456 21.6025C78.8782 22.2312 79.4391 22.5455 80 22.5455H87.2728V57.4546H80C79.4391 57.4546 78.8782 57.7689 78.6456 58.3976L73.5806 72.6013C73.4343 72.9966 73.1226 73.3083 72.7273 73.4546L58.3976 78.6456C57.7689 78.8782 57.4546 79.4391 57.4546 80V86.5455L22.5455 86.5455V80C22.5455 79.4391 22.2311 78.8782 21.6025 78.6456L7.27275 73.4546C6.87746 73.3083 6.56578 72.9966 6.41951 72.6013L1.35447 58.3976C1.12184 57.7689 0.560926 57.4546 2.38419e-05 57.4546H-7.27271L-7.27271 22.5455H2.38419e-05C0.560926 22.5455 1.12184 22.2312 1.35447 21.6025ZM40.5465 2.40341C40.196 2.26133 39.804 2.26133 39.4535 2.40341L13.6612 12.8597C13.2967 13.0075 13.0075 13.2967 12.8597 13.6613L2.40339 39.4536C2.26131 39.804 2.26131 40.1961 2.40339 40.5465L12.8597 66.3388C13.0075 66.7034 13.2967 66.9925 13.6612 67.1403L39.4535 77.5967C39.804 77.7388 40.196 77.7388 40.5465 77.5967L66.3388 67.1403C66.7034 66.9925 66.9925 66.7034 67.1403 66.3388L77.5967 40.5465C77.7388 40.1961 77.7388 39.804 77.5967 39.4536L67.1403 13.6613C66.9925 13.2967 66.7034 13.0075 66.3388 12.8597L40.5465 2.40341ZM44.5664 39.6586C42.5254 39.3832 41.0285 38.9713 41.0285 38.9713C41.0285 38.9713 40.6166 37.4744 40.3412 35.4334C41.9531 34.4522 48.7273 30.0547 48.7273 25.4543C48.7273 24.6871 48.5291 23.8372 48.1924 22.9471C52.8278 21.9617 57.9991 22.0007 57.9991 22.0007C57.9991 22.0007 57.9991 27.1612 57.0258 31.7817C56.1515 31.4606 55.3121 31.2725 54.5455 31.2725C49.9451 31.2725 45.5476 38.0467 44.5664 39.6586ZM44.5664 40.341C42.5254 40.6163 41.0285 41.0283 41.0285 41.0283C41.0285 41.0283 40.6166 42.5252 40.3412 44.5661C41.9531 45.5474 48.7273 49.9449 48.7273 54.5452C48.7273 55.3039 48.5335 56.1433 48.2036 57.0225C52.8278 57.9988 57.9991 57.9988 57.9991 57.9988C57.9991 57.9988 58.0381 52.8275 57.0527 48.1921C56.1626 48.5288 55.3127 48.727 54.5455 48.727C49.9451 48.727 45.5476 41.9529 44.5664 40.341ZM35.4337 40.341C34.4524 41.9529 30.0549 48.727 25.4546 48.727C24.6873 48.727 23.8375 48.5288 22.9473 48.1921C21.9619 52.8275 22.0009 57.9988 22.0009 57.9988C22.0009 57.9988 27.1614 57.9988 31.7819 57.0256C31.4609 56.1513 31.2727 55.3119 31.2727 54.5452C31.2727 49.9449 38.0469 45.5474 39.6588 44.5661C39.3835 42.5252 38.9715 41.0283 38.9715 41.0283C38.9715 41.0283 37.4746 40.6163 35.4337 40.341ZM39.6588 35.4334C38.0469 34.4522 31.2727 30.0547 31.2727 25.4543C31.2727 24.6789 31.4652 23.829 31.793 22.944C27.1613 21.9618 22.001 22.0007 22.001 22.0007C22.001 22.0007 22.001 27.1612 22.9742 31.7817C23.8485 31.4606 24.6879 31.2725 25.4546 31.2725C30.0549 31.2725 34.4524 38.0467 35.4337 39.6586C37.4746 39.3832 38.9715 38.9713 38.9715 38.9713C38.9715 38.9713 39.3835 37.4744 39.6588 35.4334ZM4.36375 -0.000132561C4.36375 2.40984 2.41008 4.3635 0.00011158 4.3635C-2.40986 4.3635 -4.36353 2.40984 -4.36353 -0.000132561C-4.36353 -2.4101 -2.40986 -4.36377 0.00011158 -4.36377C2.41008 -4.36377 4.36375 -2.4101 4.36375 -0.000132561ZM80.0001 4.3635C82.4101 4.3635 84.3638 2.40984 84.3638 -0.000132561C84.3638 -2.4101 82.4101 -4.36377 80.0001 -4.36377C77.5901 -4.36377 75.6365 -2.4101 75.6365 -0.000132561C75.6365 2.40984 77.5901 4.3635 80.0001 4.3635ZM80.0001 84.3635C82.4101 84.3635 84.3638 82.4098 84.3638 79.9999C84.3638 77.5899 82.4101 75.6362 80.0001 75.6362C77.5901 75.6362 75.6365 77.5899 75.6365 79.9999C75.6365 82.4098 77.5901 84.3635 80.0001 84.3635ZM0.00011158 84.3635C2.41008 84.3635 4.36375 82.4098 4.36375 79.9999C4.36375 77.5899 2.41008 75.6362 0.00011158 75.6362C-2.40986 75.6362 -4.36353 77.5899 -4.36353 79.9999C-4.36353 82.4098 -2.40986 84.3635 0.00011158 84.3635Z" fill="black" fill-opacity="0.1"/>
    </pattern>

</defs>

  <rect id="pat-rect" width="1000" height="1000" fill-opacity="0.3" fill="url(#pattern-3)"/>
  <rect id="fill-rect" width="1000" height="1000" fill-opacity="0.3" fill="url(#fill)"/>

</svg>
