<svg width="16" height="6" viewBox="0 0 16 6" fill="none" xmlns="http://www.w3.org/2000/svg">
<g clip-path="url(#clip0)">
<path d="M16 5.5C16.2761 5.5 16.5 5.27614 16.5 5C16.5 4.72386 16.2761 4.5 16 4.5V5.5ZM12.5 1C12.5 0.723858 12.2761 0.5 12 0.5C11.7239 0.5 11.5 0.723858 11.5 1H12.5ZM4.5 1C4.5 0.723858 4.27614 0.5 4 0.5C3.72386 0.5 3.5 0.723858 3.5 1H4.5ZM0 4.5C-0.276142 4.5 -0.5 4.72386 -0.5 5C-0.5 5.27614 -0.276142 5.5 0 5.5V4.5ZM32 5.5C32.2761 5.5 32.5 5.27614 32.5 5C32.5 4.72386 32.2761 4.5 32 4.5V5.5ZM28.5 1C28.5 0.723858 28.2761 0.5 28 0.5C27.7239 0.5 27.5 0.723858 27.5 1H28.5ZM20.5 1C20.5 0.723858 20.2761 0.5 20 0.5C19.7239 0.5 19.5 0.723858 19.5 1H20.5ZM16 4.5C15.7239 4.5 15.5 4.72386 15.5 5C15.5 5.27614 15.7239 5.5 16 5.5V4.5ZM16 4.5C14.067 4.5 12.5 2.933 12.5 1H11.5C11.5 3.48528 13.5147 5.5 16 5.5V4.5ZM11.5 1C11.5 2.933 9.933 4.5 8 4.5V5.5C10.4853 5.5 12.5 3.48528 12.5 1H11.5ZM8 4.5C6.067 4.5 4.5 2.933 4.5 1H3.5C3.5 3.48528 5.51472 5.5 8 5.5V4.5ZM3.5 1C3.5 2.933 1.933 4.5 0 4.5V5.5C2.48528 5.5 4.5 3.48528 4.5 1H3.5ZM32 4.5C30.067 4.5 28.5 2.933 28.5 1H27.5C27.5 3.48528 29.5147 5.5 32 5.5V4.5ZM27.5 1C27.5 2.933 25.933 4.5 24 4.5V5.5C26.4853 5.5 28.5 3.48528 28.5 1H27.5ZM24 4.5C22.067 4.5 20.5 2.933 20.5 1H19.5C19.5 3.48528 21.5147 5.5 24 5.5V4.5ZM19.5 1C19.5 2.933 17.933 4.5 16 4.5V5.5C18.4853 5.5 20.5 3.48528 20.5 1H19.5Z" fill="#23204B"/>
</g>
<defs>
<clipPath id="clip0">
<rect width="16" height="6" fill="white"/>
<!-- <animate attributeName="rx" values="0;5;0" dur="10s" repeatCount="indefinite" /> -->
</clipPath>
</defs>
</svg>
