<svg width="80" height="80" viewBox="0 0 80 80" fill="none" xmlns="http://www.w3.org/2000/svg">
<path fill-rule="evenodd" clip-rule="evenodd" d="M0 0H80V80H0V0ZM7.5 7.5V12.1967L20 24.6967L24.6967 20L12.1967 7.5H7.5ZM22.8033 7.5L35.3033 20L20 35.3033L7.5 22.8033V32.1967L20 44.6967L44.6967 20L32.1967 7.5H22.8033ZM42.8033 7.5L55.3033 20L20 55.3033L7.5 42.8033V52.1967L27.8033 72.5H37.1967L24.6967 60L60 24.6967L72.5 37.1967V27.8033L52.1967 7.5H42.8033ZM62.8033 7.5L72.5 17.1967V7.5H62.8033ZM72.5 47.8033L60 35.3033L35.3033 60L47.8033 72.5H57.1967L44.6967 60L60 44.6967L72.5 57.1967V47.8033ZM72.5 67.8033L60 55.3033L55.3033 60L67.8033 72.5H72.5V67.8033ZM17.1967 72.5L7.5 62.8033V72.5H17.1967Z" fill="#BD0827"/>
</svg>
